{
	"asset":{
		"generator":"Khronos glTF Blender I/O v4.2.69",
		"version":"2.0"
	},
	"scene":0,
	"scenes":[
		{
			"name":"Scene",
			"nodes":[
				13
			]
		}
	],
	"nodes":[
		{
			"mesh":0,
			"name":"Diamond_Round(44F64F1B-52D7-4588-BD00-1A5242B2ACEF)"
		},
		{
			"children":[
				0
			],
			"name":"Gem 03(620AD243-A668-49E7-BC14-D17E30A39A22)",
			"rotation":[
				0,
				0,
				0.2588191628456116,
				0.9659258723258972
			],
			"scale":[
				0.5599997639656067,
				0.5599997639656067,
				0.5560979843139648
			],
			"translation":[
				0,
				0,
				13.204499244689941
			]
		},
		{
			"children":[
				1
			],
			"name":"Gem 03"
		},
		{
			"mesh":1,
			"name":"Layer 02(2A53914D-05DD-40F1-9F04-DC568554DB18)"
		},
		{
			"mesh":2,
			"name":"Layer 02(427230C5-A20C-4345-B4D0-DAF465520F6F)"
		},
		{
			"mesh":3,
			"name":"Layer 02(805D15DE-A924-43FA-8D7A-ADD16711300C)"
		},
		{
			"mesh":4,
			"name":"Layer 02(ACBE7E28-9450-465B-BAFB-ADCAD176A19F)"
		},
		{
			"mesh":5,
			"name":"Layer 02(BFC679F0-8A92-4658-B3F6-0063EBA39047)"
		},
		{
			"mesh":6,
			"name":"Layer 02(F5360C41-58A0-41E4-8BD1-5F379E0C0432)"
		},
		{
			"mesh":7,
			"name":"Layer 02(F8CFA0B3-F978-4781-A988-0CBB15BE5199)"
		},
		{
			"children":[
				3,
				4,
				5,
				6,
				7,
				8,
				9
			],
			"name":"Layer 02"
		},
		{
			"children":[
				2,
				10
			],
			"name":"di 03",
			"translation":[
				0,
				3.618133306503296,
				-2.5495738983154297
			]
		},
		{
			"children":[
				11
			],
			"name":"Default"
		},
		{
			"children":[
				12
			],
			"name":"lux_root",
			"rotation":[
				-0.70710688829422,
				0,
				0,
				0.7071066498756409
			],
			"scale":[
				0.10000000149011612,
				0.10000001639127731,
				0.10000001639127731
			]
		}
	],
	"materials":[
		{
			"alphaMode":"BLEND",
			"doubleSided":true,
			"emissiveFactor":[
				0.5643160939216614,
				0.5643160939216614,
				0.5643160939216614
			],
			"emissiveTexture":{
				"index":0
			},
			"name":"DiamondOutside",
			"occlusionTexture":{
				"index":1
			},
			"pbrMetallicRoughness":{
				"baseColorTexture":{
					"index":2
				},
				"metallicRoughnessTexture":{
					"index":1
				}
			}
		},
		{
			"doubleSided":true,
			"name":"Silver Polished #1.008",
			"occlusionTexture":{
				"index":3
			},
			"pbrMetallicRoughness":{
				"baseColorFactor":[
					0.9700523018836975,
					0.9602228403091431,
					0.9167609214782715,
					1
				],
				"roughnessFactor":0
			}
		},
		{
			"doubleSided":true,
			"name":"Silver Polished #1.007",
			"occlusionTexture":{
				"index":4
			},
			"pbrMetallicRoughness":{
				"baseColorFactor":[
					0.9700523018836975,
					0.9602228403091431,
					0.9167609214782715,
					1
				],
				"roughnessFactor":0
			}
		},
		{
			"doubleSided":true,
			"name":"Silver Polished #1.013",
			"occlusionTexture":{
				"index":5
			},
			"pbrMetallicRoughness":{
				"baseColorFactor":[
					0.9700523018836975,
					0.9602228403091431,
					0.9167609214782715,
					1
				],
				"roughnessFactor":0
			}
		},
		{
			"doubleSided":true,
			"name":"Silver Polished #1.009",
			"occlusionTexture":{
				"index":6
			},
			"pbrMetallicRoughness":{
				"baseColorFactor":[
					0.9700523018836975,
					0.9602228403091431,
					0.9167609214782715,
					1
				],
				"roughnessFactor":0
			}
		},
		{
			"doubleSided":true,
			"name":"Silver Polished #1.011",
			"occlusionTexture":{
				"index":7
			},
			"pbrMetallicRoughness":{
				"baseColorFactor":[
					0.9700523018836975,
					0.9602228403091431,
					0.9167609214782715,
					1
				],
				"roughnessFactor":0
			}
		},
		{
			"doubleSided":true,
			"name":"Silver Polished #1.010",
			"occlusionTexture":{
				"index":8
			},
			"pbrMetallicRoughness":{
				"baseColorFactor":[
					0.9700523018836975,
					0.9602228403091431,
					0.9167609214782715,
					1
				],
				"roughnessFactor":0
			}
		},
		{
			"doubleSided":true,
			"name":"Silver Polished #1.012",
			"occlusionTexture":{
				"index":9
			},
			"pbrMetallicRoughness":{
				"baseColorFactor":[
					0.9700523018836975,
					0.9602228403091431,
					0.9167609214782715,
					1
				],
				"roughnessFactor":0
			}
		}
	],
	"meshes":[
		{
			"name":"Diamond_Round(44F64F1B-52D7-4588-BD00-1A5242B2ACEF).001",
			"primitives":[
				{
					"attributes":{
						"POSITION":0,
						"NORMAL":1,
						"TEXCOORD_0":2
					},
					"indices":3,
					"material":0
				}
			]
		},
		{
			"name":"Layer 02(2A53914D-05DD-40F1-9F04-DC568554DB18).001",
			"primitives":[
				{
					"attributes":{
						"POSITION":4,
						"NORMAL":5,
						"TEXCOORD_0":6
					},
					"indices":7,
					"material":1
				}
			]
		},
		{
			"name":"Layer 02(427230C5-A20C-4345-B4D0-DAF465520F6F).001",
			"primitives":[
				{
					"attributes":{
						"POSITION":8,
						"NORMAL":9,
						"TEXCOORD_0":10
					},
					"indices":7,
					"material":2
				}
			]
		},
		{
			"name":"Layer 02(805D15DE-A924-43FA-8D7A-ADD16711300C).001",
			"primitives":[
				{
					"attributes":{
						"POSITION":11,
						"NORMAL":12,
						"TEXCOORD_0":13
					},
					"indices":14,
					"material":3
				}
			]
		},
		{
			"name":"Layer 02(ACBE7E28-9450-465B-BAFB-ADCAD176A19F).001",
			"primitives":[
				{
					"attributes":{
						"POSITION":15,
						"NORMAL":16,
						"TEXCOORD_0":17
					},
					"indices":7,
					"material":4
				}
			]
		},
		{
			"name":"Layer 02(BFC679F0-8A92-4658-B3F6-0063EBA39047).001",
			"primitives":[
				{
					"attributes":{
						"POSITION":18,
						"NORMAL":19,
						"TEXCOORD_0":20
					},
					"indices":7,
					"material":5
				}
			]
		},
		{
			"name":"Layer 02(F5360C41-58A0-41E4-8BD1-5F379E0C0432).001",
			"primitives":[
				{
					"attributes":{
						"POSITION":21,
						"NORMAL":22,
						"TEXCOORD_0":23
					},
					"indices":7,
					"material":6
				}
			]
		},
		{
			"name":"Layer 02(F8CFA0B3-F978-4781-A988-0CBB15BE5199).001",
			"primitives":[
				{
					"attributes":{
						"POSITION":24,
						"NORMAL":25,
						"TEXCOORD_0":26
					},
					"indices":7,
					"material":7
				}
			]
		}
	],
	"textures":[
		{
			"sampler":0,
			"source":0
		},
		{
			"sampler":0,
			"source":1
		},
		{
			"sampler":0,
			"source":2
		},
		{
			"sampler":0,
			"source":3
		},
		{
			"sampler":0,
			"source":4
		},
		{
			"sampler":0,
			"source":5
		},
		{
			"sampler":0,
			"source":6
		},
		{
			"sampler":0,
			"source":7
		},
		{
			"sampler":0,
			"source":8
		},
		{
			"sampler":0,
			"source":9
		}
	],
	"images":[
		{
			"mimeType":"image/png",
			"name":"Image_2",
			"uri":"Image_2.png"
		},
		{
			"mimeType":"image/png",
			"name":"Image_1",
			"uri":"Image_1.png"
		},
		{
			"mimeType":"image/png",
			"name":"Image_0",
			"uri":"Image_0.png"
		},
		{
			"mimeType":"image/jpeg",
			"name":"Image_1",
			"uri":"Image_1.jpg"
		},
		{
			"mimeType":"image/jpeg",
			"name":"Image_0",
			"uri":"Image_0.jpg"
		},
		{
			"mimeType":"image/jpeg",
			"name":"Image_6",
			"uri":"Image_6.jpg"
		},
		{
			"mimeType":"image/jpeg",
			"name":"Image_2",
			"uri":"Image_2.jpg"
		},
		{
			"mimeType":"image/jpeg",
			"name":"Image_4",
			"uri":"Image_4.jpg"
		},
		{
			"mimeType":"image/jpeg",
			"name":"Image_3",
			"uri":"Image_3.jpg"
		},
		{
			"mimeType":"image/jpeg",
			"name":"Image_5",
			"uri":"Image_5.jpg"
		}
	],
	"accessors":[
		{
			"bufferView":0,
			"componentType":5126,
			"count":995,
			"max":[
				5,
				5,
				1.7089052200317383
			],
			"min":[
				-5,
				-5,
				-4.441372394561768
			],
			"type":"VEC3"
		},
		{
			"bufferView":1,
			"componentType":5126,
			"count":995,
			"type":"VEC3"
		},
		{
			"bufferView":2,
			"componentType":5126,
			"count":995,
			"type":"VEC2"
		},
		{
			"bufferView":3,
			"componentType":5123,
			"count":2370,
			"type":"SCALAR"
		},
		{
			"bufferView":4,
			"componentType":5126,
			"count":2871,
			"max":[
				0.11798095703125,
				2.0990149974823,
				14.634177207946777
			],
			"min":[
				-3.2840781211853027,
				-0.30064159631729126,
				8.45571231842041
			],
			"type":"VEC3"
		},
		{
			"bufferView":5,
			"componentType":5126,
			"count":2871,
			"type":"VEC3"
		},
		{
			"bufferView":6,
			"componentType":5126,
			"count":2871,
			"type":"VEC2"
		},
		{
			"bufferView":7,
			"componentType":5123,
			"count":14682,
			"type":"SCALAR"
		},
		{
			"bufferView":8,
			"componentType":5126,
			"count":2871,
			"max":[
				0.11798095703125,
				0.3007199764251709,
				14.634177207946777
			],
			"min":[
				-3.2840781211853027,
				-2.0989365577697754,
				8.45571231842041
			],
			"type":"VEC3"
		},
		{
			"bufferView":9,
			"componentType":5126,
			"count":2871,
			"type":"VEC3"
		},
		{
			"bufferView":10,
			"componentType":5126,
			"count":2871,
			"type":"VEC2"
		},
		{
			"bufferView":11,
			"componentType":5126,
			"count":13664,
			"max":[
				9.640435218811035,
				0.9863213300704956,
				12.625622749328613
			],
			"min":[
				-9.640400886535645,
				-0.9858590364456177,
				-9.535029411315918
			],
			"type":"VEC3"
		},
		{
			"bufferView":12,
			"componentType":5126,
			"count":13664,
			"type":"VEC3"
		},
		{
			"bufferView":13,
			"componentType":5126,
			"count":13664,
			"type":"VEC2"
		},
		{
			"bufferView":14,
			"componentType":5123,
			"count":68850,
			"type":"SCALAR"
		},
		{
			"bufferView":15,
			"componentType":5126,
			"count":2871,
			"max":[
				0.6517300009727478,
				3.618208408355713,
				14.634177207946777
			],
			"min":[
				-0.6516194939613342,
				0.0585104376077652,
				8.45571231842041
			],
			"type":"VEC3"
		},
		{
			"bufferView":16,
			"componentType":5126,
			"count":2871,
			"type":"VEC3"
		},
		{
			"bufferView":17,
			"componentType":5126,
			"count":2871,
			"type":"VEC2"
		},
		{
			"bufferView":18,
			"componentType":5126,
			"count":2871,
			"max":[
				3.284228563308716,
				0.3007199764251709,
				14.634177207946777
			],
			"min":[
				-0.11783057451248169,
				-2.0989365577697754,
				8.45571231842041
			],
			"type":"VEC3"
		},
		{
			"bufferView":19,
			"componentType":5126,
			"count":2871,
			"type":"VEC3"
		},
		{
			"bufferView":20,
			"componentType":5126,
			"count":2871,
			"type":"VEC2"
		},
		{
			"bufferView":21,
			"componentType":5126,
			"count":2871,
			"max":[
				3.284228563308716,
				2.0990149974823,
				14.634177207946777
			],
			"min":[
				-0.11783057451248169,
				-0.30064159631729126,
				8.45571231842041
			],
			"type":"VEC3"
		},
		{
			"bufferView":22,
			"componentType":5126,
			"count":2871,
			"type":"VEC3"
		},
		{
			"bufferView":23,
			"componentType":5126,
			"count":2871,
			"type":"VEC2"
		},
		{
			"bufferView":24,
			"componentType":5126,
			"count":2871,
			"max":[
				0.6517300009727478,
				-0.05843544006347656,
				14.634177207946777
			],
			"min":[
				-0.6516194939613342,
				-3.618133306503296,
				8.45571231842041
			],
			"type":"VEC3"
		},
		{
			"bufferView":25,
			"componentType":5126,
			"count":2871,
			"type":"VEC3"
		},
		{
			"bufferView":26,
			"componentType":5126,
			"count":2871,
			"type":"VEC2"
		}
	],
	"bufferViews":[
		{
			"buffer":0,
			"byteLength":11940,
			"byteOffset":0,
			"target":34962
		},
		{
			"buffer":0,
			"byteLength":11940,
			"byteOffset":11940,
			"target":34962
		},
		{
			"buffer":0,
			"byteLength":7960,
			"byteOffset":23880,
			"target":34962
		},
		{
			"buffer":0,
			"byteLength":4740,
			"byteOffset":31840,
			"target":34963
		},
		{
			"buffer":0,
			"byteLength":34452,
			"byteOffset":36580,
			"target":34962
		},
		{
			"buffer":0,
			"byteLength":34452,
			"byteOffset":71032,
			"target":34962
		},
		{
			"buffer":0,
			"byteLength":22968,
			"byteOffset":105484,
			"target":34962
		},
		{
			"buffer":0,
			"byteLength":29364,
			"byteOffset":128452,
			"target":34963
		},
		{
			"buffer":0,
			"byteLength":34452,
			"byteOffset":157816,
			"target":34962
		},
		{
			"buffer":0,
			"byteLength":34452,
			"byteOffset":192268,
			"target":34962
		},
		{
			"buffer":0,
			"byteLength":22968,
			"byteOffset":226720,
			"target":34962
		},
		{
			"buffer":0,
			"byteLength":163968,
			"byteOffset":249688,
			"target":34962
		},
		{
			"buffer":0,
			"byteLength":163968,
			"byteOffset":413656,
			"target":34962
		},
		{
			"buffer":0,
			"byteLength":109312,
			"byteOffset":577624,
			"target":34962
		},
		{
			"buffer":0,
			"byteLength":137700,
			"byteOffset":686936,
			"target":34963
		},
		{
			"buffer":0,
			"byteLength":34452,
			"byteOffset":824636,
			"target":34962
		},
		{
			"buffer":0,
			"byteLength":34452,
			"byteOffset":859088,
			"target":34962
		},
		{
			"buffer":0,
			"byteLength":22968,
			"byteOffset":893540,
			"target":34962
		},
		{
			"buffer":0,
			"byteLength":34452,
			"byteOffset":916508,
			"target":34962
		},
		{
			"buffer":0,
			"byteLength":34452,
			"byteOffset":950960,
			"target":34962
		},
		{
			"buffer":0,
			"byteLength":22968,
			"byteOffset":985412,
			"target":34962
		},
		{
			"buffer":0,
			"byteLength":34452,
			"byteOffset":1008380,
			"target":34962
		},
		{
			"buffer":0,
			"byteLength":34452,
			"byteOffset":1042832,
			"target":34962
		},
		{
			"buffer":0,
			"byteLength":22968,
			"byteOffset":1077284,
			"target":34962
		},
		{
			"buffer":0,
			"byteLength":34452,
			"byteOffset":1100252,
			"target":34962
		},
		{
			"buffer":0,
			"byteLength":34452,
			"byteOffset":1134704,
			"target":34962
		},
		{
			"buffer":0,
			"byteLength":22968,
			"byteOffset":1169156,
			"target":34962
		}
	],
	"samplers":[
		{
			"magFilter":9729,
			"minFilter":9987
		}
	],
	"buffers":[
		{
			"byteLength":1192124,
			"uri":"ring.bin"
		}
	]
}
