<svg width="52" height="42" viewBox="0 0 51 23" fill="none"
    xmlns="http://www.w3.org/2000/svg">
    <g clip-path="url(#clip0_2178_5277)">
        <path d="M44.5879 17.7621H34.3779C34.3079 17.7621 34.2379 17.7621 34.1679 17.7421C34.0979 17.7222 34.0379 17.6822 33.9879 17.6422C33.9379 17.5922 33.8979 17.5422 33.8679 17.4723C33.8379 17.4123 33.8279 17.3423 33.8279 17.2724C33.8279 17.2024 33.8379 17.1324 33.8679 17.0725C33.8979 17.0125 33.9379 16.9525 33.9879 16.9025C34.0379 16.8526 34.0979 16.8226 34.1679 16.8026C34.2379 16.7826 34.3079 16.7726 34.3779 16.7826H44.5879C45.2879 16.8026 45.9879 16.6926 46.6379 16.4427C47.2879 16.1929 47.8879 15.823 48.3979 15.3432C48.9179 14.8635 49.3279 14.2837 49.5979 13.634C49.8779 12.9843 50.0079 12.2846 49.9979 11.5849C49.9979 10.0756 49.4279 8.62629 48.3779 7.54678C47.3279 6.64719 45.9679 6.1774 44.5879 6.24737H34.2479C34.1179 6.24737 33.9879 6.19739 33.8979 6.09744C33.8079 6.00748 33.7479 5.87754 33.7479 5.7476C33.7479 5.61766 33.7979 5.48772 33.8979 5.39776C33.9879 5.3078 34.1179 5.24783 34.2479 5.24783H44.5879C46.2379 5.17786 47.8479 5.7476 49.0879 6.82711C50.3179 8.10653 51.0079 9.80575 51.0079 11.575C51.0179 12.4046 50.8579 13.2342 50.5279 14.0038C50.1979 14.7735 49.7179 15.4632 49.1079 16.0329C47.8879 17.1824 46.2679 17.8121 44.5879 17.7721V17.7621Z" fill="#444444"/>
        <path d="M25.7079 18.122C25.6579 18.122 25.5979 18.122 25.5479 18.092C25.4979 18.072 25.4579 18.042 25.4179 18.002L19.2079 11.8548C19.2079 11.8548 19.1379 11.7749 19.1179 11.7249C19.0979 11.6749 19.0879 11.6249 19.0879 11.575C19.0879 11.465 19.1279 11.3651 19.2079 11.2851L25.4179 5.13789C25.4979 5.05793 25.5979 5.01794 25.7079 5.01794C25.8179 5.01794 25.9179 5.05793 25.9979 5.13789L32.2079 11.2851C32.2079 11.2851 32.2779 11.3651 32.2979 11.415C32.3179 11.465 32.3279 11.515 32.3279 11.565C32.3279 11.6149 32.3179 11.6749 32.2979 11.7249C32.2779 11.7749 32.2479 11.8149 32.2079 11.8548L25.9979 18.002C25.9179 18.082 25.8179 18.122 25.7079 18.122ZM20.0779 11.575L25.7079 17.1524L31.3379 11.575L25.7079 6.00749L20.0779 11.575Z" fill="#444444"/>
        <path d="M16.8979 17.7621H6.41786C5.60786 17.7821 4.79786 17.6422 4.04786 17.3423C3.29786 17.0425 2.60786 16.5927 2.02786 16.0229C1.39786 15.4632 0.897864 14.7735 0.547864 14.0038C0.197864 13.2342 0.00786377 12.4046 -0.00213623 11.565C0.0378638 9.79576 0.757864 8.11652 2.00786 6.85709C2.58786 6.29735 3.28786 5.86754 4.03786 5.58767C4.79786 5.3078 5.59786 5.18785 6.40786 5.22783L16.8979 5.35777C16.9679 5.35777 17.0379 5.35777 17.1079 5.38776C17.1779 5.40775 17.2379 5.44773 17.2879 5.49771C17.3379 5.54769 17.3779 5.60766 17.4079 5.66763C17.4379 5.72761 17.4479 5.79757 17.4479 5.86754C17.4479 5.93751 17.4279 6.00748 17.3979 6.06745C17.3679 6.12742 17.3279 6.1874 17.2779 6.23737C17.2279 6.28735 17.1679 6.31734 17.0979 6.33733C17.0279 6.35732 16.9579 6.36732 16.8879 6.35732L6.41786 6.22738C5.74786 6.1874 5.07786 6.27736 4.44786 6.50725C3.81786 6.73715 3.23786 7.08699 2.74786 7.54678C1.67786 8.61629 1.05786 10.0556 1.01786 11.565C1.02786 12.2746 1.18786 12.9743 1.48786 13.624C1.78786 14.2737 2.21786 14.8535 2.74786 15.3232C3.22786 15.803 3.80786 16.1729 4.43786 16.4227C5.06786 16.6726 5.74786 16.7826 6.42786 16.7626H16.9079C16.9779 16.7626 17.0479 16.7626 17.1179 16.7826C17.1879 16.8026 17.2479 16.8426 17.2979 16.8825C17.3479 16.9325 17.3879 16.9825 17.4179 17.0525C17.4479 17.1124 17.4579 17.1824 17.4579 17.2524C17.4579 17.3223 17.4479 17.3923 17.4179 17.4523C17.3879 17.5122 17.3479 17.5722 17.2979 17.6222C17.2479 17.6722 17.1879 17.7022 17.1179 17.7222C17.0479 17.7421 16.9779 17.7521 16.9079 17.7421L16.8979 17.7621Z" fill="#444444"/>
        <path d="M25.7079 22.4999C24.2479 22.4999 22.7979 22.2201 21.4479 21.6603C20.0979 21.1006 18.8779 20.281 17.8479 19.2314C17.3079 18.7916 16.8379 18.2719 16.4379 17.6921C15.1779 15.9029 14.5179 13.7539 14.5579 11.5649C14.5179 9.37591 15.1779 7.23688 16.4379 5.4477C16.8079 4.778 17.3179 4.17828 17.9179 3.70849C18.9079 2.64897 20.1179 1.81935 21.4679 1.2696C22.8079 0.709852 24.2579 0.44997 25.7079 0.499947C27.1779 0.44997 29.2979 0.859784 30.6579 1.42952C32.0179 1.99927 34.1479 3.41862 35.4379 5.89749C36.3979 7.74665 36.9179 9.29595 36.8579 11.5649C36.8979 13.7739 36.1879 15.9429 34.8379 17.6921C34.4479 18.2319 34.0279 18.7417 33.5679 19.2314C32.5479 20.281 31.3179 21.1106 29.9679 21.6703C28.6179 22.2301 27.1679 22.5099 25.6979 22.4999H25.7079ZM25.7079 1.84933C24.4179 1.79936 23.1379 2.01926 21.9479 2.51903C20.7579 3.00881 19.6879 3.75847 18.8079 4.70803C18.2979 5.11785 17.8679 5.61762 17.5479 6.19736C16.4379 7.77664 15.8679 9.65579 15.8979 11.5849C15.8679 13.494 16.4279 15.3632 17.5179 16.9225C17.8579 17.4223 18.2579 17.8621 18.7179 18.2519C19.6279 19.1815 20.7079 19.9211 21.9079 20.4209C23.1079 20.9207 24.3979 21.1805 25.6979 21.1805C26.9879 21.2005 28.2679 20.9606 29.4579 20.4609C30.6479 19.9711 31.7179 19.2314 32.6179 18.3119C33.0279 17.8721 33.4179 17.4023 33.7679 16.9125C34.9379 15.3832 35.5179 13.3441 35.5179 11.5849C35.5179 8.98609 34.4279 6.64715 33.3079 5.24779C32.2679 3.94838 30.6779 3.0288 29.4879 2.52903C28.2979 2.02925 27.0079 1.79936 25.7179 1.85933L25.7079 1.84933Z" fill="#444444"/>
        <path d="M25.7079 20.0411C23.4179 20.0411 21.2279 19.1316 19.6279 17.4923C17.9979 15.893 17.0779 13.694 17.0779 11.4051C17.0779 9.15609 17.9979 7.00707 19.6079 5.43778C22.9179 2.06931 28.3379 2.02933 31.7079 5.33783C31.7379 5.36781 31.7679 5.3978 31.7979 5.42779C33.4679 6.95709 34.3979 9.1361 34.3479 11.4051C34.3679 13.694 33.4479 15.893 31.7979 17.4923C30.1979 19.1316 27.9979 20.0511 25.7079 20.0411ZM25.7079 3.93846C23.6979 3.93846 21.7679 4.7381 20.3579 6.17744C17.4279 9.02615 17.3679 13.694 20.2079 16.6227C20.2579 16.6727 20.3079 16.7326 20.3679 16.7826C23.2879 19.7313 28.0479 19.7513 30.9979 16.8326C31.0179 16.8126 31.0379 16.7926 31.0579 16.7726C32.5179 15.3833 33.3279 13.4441 33.2979 11.4251C33.3479 9.44596 32.5379 7.53683 31.0679 6.19744C29.6579 4.74809 27.7279 3.93846 25.7079 3.93846Z" fill="#444444"/>
    </g>
    <defs>
        <clipPath id="clip0_2178_5277">
            <rect width="51" height="22" fill="white" transform="translate(0.00787354 0.5)"/>
        </clipPath>
    </defs>
</svg>
