<svg width="52" height="42" viewBox="0 0 52 42" fill="none" xmlns="http://www.w3.org/2000/svg">
<path d="M16.7945 27.1169H2.91748C2.84453 27.1169 2.77243 27.1013 2.70602 27.0711C2.63962 27.041 2.58044 26.9969 2.53248 26.9419L0.242476 24.2949C0.165436 24.2054 0.123196 24.0911 0.123475 23.9729V17.6229C0.123229 17.4955 0.172328 17.373 0.260476 17.2809L2.82048 14.6339C2.92424 14.5443 3.05382 14.49 3.19048 14.4789L17.0675 14.6099C17.2001 14.6099 17.3273 14.6626 17.421 14.7564C17.5148 14.8502 17.5675 14.9773 17.5675 15.1099C17.5593 15.2405 17.5024 15.3632 17.4082 15.4539C17.314 15.5446 17.1892 15.5967 17.0585 15.5999L3.40248 15.4709L1.13348 17.8169V23.7889L3.15048 26.1169H16.7925C16.8626 26.1086 16.9337 26.1152 17.0012 26.1364C17.0686 26.1575 17.1307 26.1927 17.1835 26.2396C17.2364 26.2865 17.2787 26.3441 17.3076 26.4085C17.3366 26.4729 17.3515 26.5428 17.3515 26.6134C17.3515 26.6841 17.3366 26.7539 17.3076 26.8184C17.2787 26.8828 17.2364 26.9404 17.1835 26.9873C17.1307 27.0342 17.0686 27.0694 17.0012 27.0905C16.9337 27.1117 16.8626 27.1183 16.7925 27.1099L16.7945 27.1169Z" fill="#444444"/>
<path d="M4.53448 24.5359C4.40028 24.5359 4.27157 24.4826 4.17668 24.3877C4.08179 24.2928 4.02848 24.1641 4.02848 24.0299V17.9679C4.02544 17.8997 4.03626 17.8315 4.0603 17.7675C4.08433 17.7035 4.12108 17.6451 4.16831 17.5957C4.21555 17.5463 4.27231 17.507 4.33515 17.4801C4.398 17.4533 4.46563 17.4394 4.53398 17.4394C4.60232 17.4394 4.66995 17.4533 4.7328 17.4801C4.79564 17.507 4.8524 17.5463 4.89964 17.5957C4.94688 17.6451 4.98362 17.7035 5.00765 17.7675C5.03169 17.8315 5.04251 17.8997 5.03948 17.9679V24.0309C5.03921 24.1648 4.98592 24.2931 4.89127 24.3877C4.79662 24.4824 4.66833 24.5357 4.53448 24.5359Z" fill="#444444"/>
<path d="M4.53348 24.5029H0.896476C0.766298 24.4971 0.643373 24.4414 0.553304 24.3472C0.463234 24.253 0.412964 24.1277 0.412964 23.9974C0.412964 23.8671 0.463234 23.7418 0.553304 23.6477C0.643373 23.5535 0.766298 23.4977 0.896476 23.4919H4.53348C4.66365 23.4977 4.78658 23.5535 4.87665 23.6477C4.96672 23.7418 5.01699 23.8671 5.01699 23.9974C5.01699 24.1277 4.96672 24.253 4.87665 24.3472C4.78658 24.4414 4.66365 24.4971 4.53348 24.5029Z" fill="#444444"/>
<path d="M15.4495 24.5029H11.4085C11.2783 24.4971 11.1554 24.4414 11.0653 24.3472C10.9752 24.253 10.925 24.1277 10.925 23.9974C10.925 23.8671 10.9752 23.7418 11.0653 23.6477C11.1554 23.5535 11.2783 23.4977 11.4085 23.4919H15.4505C15.5807 23.4977 15.7036 23.5535 15.7936 23.6477C15.8837 23.7418 15.934 23.8671 15.934 23.9974C15.934 24.1277 15.8837 24.253 15.7936 24.3472C15.7036 24.4414 15.5797 24.4971 15.4495 24.5029Z" fill="#444444"/>
<path d="M11.4085 24.5379C11.2743 24.5379 11.1456 24.4846 11.0507 24.3897C10.9558 24.2948 10.9025 24.1661 10.9025 24.0319V17.8319C10.8994 17.7637 10.9103 17.6955 10.9343 17.6315C10.9583 17.5675 10.9951 17.5091 11.0423 17.4597C11.0896 17.4103 11.1463 17.371 11.2092 17.3441C11.272 17.3173 11.3396 17.3035 11.408 17.3035C11.4763 17.3035 11.544 17.3173 11.6068 17.3441C11.6696 17.371 11.7264 17.4103 11.7736 17.4597C11.8209 17.5091 11.8576 17.5675 11.8817 17.6315C11.9057 17.6955 11.9165 17.7637 11.9135 17.8319V24.0319C11.9132 24.1659 11.86 24.2943 11.7653 24.3891C11.6707 24.4839 11.5424 24.5374 11.4085 24.5379Z" fill="#444444"/>
<path d="M15.7165 17.9729H0.898476C0.768298 17.9671 0.645373 17.9114 0.555304 17.8172C0.465234 17.723 0.414964 17.5977 0.414964 17.4674C0.414964 17.3371 0.465234 17.2118 0.555304 17.1177C0.645373 17.0235 0.768298 16.9677 0.898476 16.9619H15.7165C15.8467 16.9677 15.9696 17.0235 16.0596 17.1177C16.1497 17.2118 16.2 17.3371 16.2 17.4674C16.2 17.5977 16.1497 17.723 16.0596 17.8172C15.9696 17.9114 15.8467 17.9671 15.7165 17.9729Z" fill="#444444"/>
<path d="M25.5575 28.9999C25.4898 29.0051 25.4219 28.9943 25.3592 28.9684C25.2965 28.9426 25.2408 28.9023 25.1965 28.8509L17.6525 21.2819C17.5609 21.1885 17.5095 21.0628 17.5095 20.9319C17.5095 20.8011 17.5609 20.6754 17.6525 20.5819L25.1965 13.1439C25.2917 13.0514 25.4192 12.9996 25.552 12.9996C25.6847 12.9996 25.8123 13.0514 25.9075 13.1439L33.5885 20.5819C33.6355 20.628 33.6728 20.683 33.6983 20.7437C33.7238 20.8044 33.737 20.8696 33.737 20.9354C33.737 21.0013 33.7238 21.0665 33.6983 21.1272C33.6728 21.1878 33.6355 21.2429 33.5885 21.2889L25.9145 28.8539C25.8195 28.9474 25.6907 28.9998 25.5575 28.9999ZM18.7225 20.9349L25.5595 27.7939L32.5145 20.9349L25.5565 14.1959L18.7195 20.9349H18.7225Z" fill="#444444"/>
<path d="M46.7135 24.5029H39.9785C39.8483 24.4971 39.7254 24.4414 39.6353 24.3472C39.5452 24.253 39.495 24.1277 39.495 23.9974C39.495 23.8671 39.5452 23.7418 39.6353 23.6477C39.7254 23.5535 39.8483 23.4977 39.9785 23.4919H46.7135C46.7817 23.4889 46.8499 23.4997 46.9139 23.5238C46.9779 23.5478 47.0363 23.5845 47.0857 23.6318C47.1351 23.679 47.1744 23.7358 47.2013 23.7986C47.2281 23.8615 47.242 23.9291 47.242 23.9974C47.242 24.0658 47.2281 24.1334 47.2013 24.1963C47.1744 24.2591 47.1351 24.3159 47.0857 24.3631C47.0363 24.4103 46.9779 24.4471 46.9139 24.4711C46.8499 24.4952 46.7817 24.506 46.7135 24.5029Z" fill="#444444"/>
<path d="M39.7045 24.5379H35.6655C35.5353 24.5321 35.4124 24.4764 35.3223 24.3822C35.2322 24.288 35.182 24.1627 35.182 24.0324C35.182 23.9021 35.2322 23.7768 35.3223 23.6827C35.4124 23.5885 35.5353 23.5327 35.6655 23.5269H39.2015V17.8349C39.2073 17.7048 39.2631 17.5818 39.3572 17.4918C39.4514 17.4017 39.5767 17.3514 39.707 17.3514C39.8373 17.3514 39.9626 17.4017 40.0567 17.4918C40.1509 17.5818 40.2067 17.7048 40.2125 17.8349V24.0349C40.2122 24.1691 40.1588 24.2976 40.064 24.3924C39.9691 24.4873 39.8406 24.5407 39.7065 24.5409L39.7045 24.5379Z" fill="#444444"/>
<path d="M50.2155 24.5029H46.7155C46.5853 24.4971 46.4624 24.4414 46.3723 24.3472C46.2822 24.253 46.232 24.1277 46.232 23.9974C46.232 23.8671 46.2822 23.7418 46.3723 23.6477C46.4624 23.5535 46.5853 23.4977 46.7155 23.4919H50.2155C50.3457 23.4977 50.4686 23.5535 50.5586 23.6477C50.6487 23.7418 50.699 23.8671 50.699 23.9974C50.699 24.1277 50.6487 24.253 50.5586 24.3472C50.4686 24.4414 50.3457 24.4971 50.2155 24.5029Z" fill="#444444"/>
<path d="M46.7135 24.5359C46.5793 24.5359 46.4506 24.4826 46.3557 24.3877C46.2608 24.2928 46.2075 24.1641 46.2075 24.0299V17.9679C46.2133 17.8378 46.2691 17.7148 46.3632 17.6248C46.4574 17.5347 46.5827 17.4844 46.713 17.4844C46.8433 17.4844 46.9686 17.5347 47.0627 17.6248C47.1569 17.7148 47.2127 17.8378 47.2185 17.9679V24.0309C47.2182 24.1648 47.1649 24.2931 47.0703 24.3877C46.9756 24.4824 46.8473 24.5357 46.7135 24.5359Z" fill="#444444"/>
<path d="M48.1955 27.1169H34.3185C34.2483 27.1253 34.1772 27.1187 34.1098 27.0975C34.0424 27.0764 33.9802 27.0412 33.9274 26.9943C33.8746 26.9474 33.8323 26.8898 33.8033 26.8254C33.7744 26.7609 33.7594 26.6911 33.7594 26.6204C33.7594 26.5498 33.7744 26.4799 33.8033 26.4155C33.8323 26.3511 33.8746 26.2935 33.9274 26.2466C33.9802 26.1997 34.0424 26.1645 34.1098 26.1434C34.1772 26.1222 34.2483 26.1156 34.3185 26.1239H47.9685L50.1185 23.7829V17.8169L47.8495 15.4699L34.1915 15.6009C34.0612 15.5964 33.9371 15.5438 33.8432 15.4534C33.7492 15.3629 33.692 15.241 33.6825 15.1109C33.6825 14.9783 33.7351 14.8512 33.8289 14.7574C33.9227 14.6636 34.0499 14.6109 34.1825 14.6109L48.0585 14.4799C48.1965 14.4852 48.3279 14.5403 48.4285 14.6349L50.9885 17.2819C51.0773 17.3736 51.1268 17.4963 51.1265 17.6239V23.9749C51.1266 24.0983 51.0802 24.2173 50.9965 24.3079L48.5735 26.9549C48.5254 27.0069 48.4671 27.0483 48.4022 27.0765C48.3373 27.1048 48.2672 27.1192 48.1965 27.1189L48.1955 27.1169Z" fill="#444444"/>
<path d="M50.2175 17.9729H35.5305C35.4622 17.976 35.394 17.9652 35.33 17.9411C35.2661 17.9171 35.2076 17.8803 35.1582 17.8331C35.1088 17.7859 35.0695 17.7291 35.0427 17.6663C35.0158 17.6034 35.002 17.5358 35.002 17.4674C35.002 17.3991 35.0158 17.3315 35.0427 17.2686C35.0695 17.2058 35.1088 17.149 35.1582 17.1018C35.2076 17.0545 35.2661 17.0178 35.33 16.9938C35.394 16.9697 35.4622 16.9589 35.5305 16.9619H50.2175C50.2858 16.9589 50.3539 16.9697 50.4179 16.9938C50.4819 17.0178 50.5403 17.0545 50.5897 17.1018C50.6391 17.149 50.6784 17.2058 50.7053 17.2686C50.7321 17.3315 50.746 17.3991 50.746 17.4674C50.746 17.5358 50.7321 17.6034 50.7053 17.6663C50.6784 17.7291 50.6391 17.7859 50.5897 17.8331C50.5403 17.8803 50.4819 17.9171 50.4179 17.9411C50.3539 17.9652 50.2858 17.976 50.2175 17.9729Z" fill="#444444"/>
<path d="M11.4095 24.5029H4.53448C4.4043 24.4971 4.28137 24.4414 4.1913 24.3472C4.10123 24.253 4.05096 24.1277 4.05096 23.9974C4.05096 23.8671 4.10123 23.7418 4.1913 23.6477C4.28137 23.5535 4.4043 23.4977 4.53448 23.4919H11.4095C11.5397 23.4977 11.6626 23.5535 11.7526 23.6477C11.8427 23.7418 11.893 23.8671 11.893 23.9974C11.893 24.1277 11.8427 24.253 11.7526 24.3472C11.6626 24.4414 11.5397 24.4971 11.4095 24.5029Z" fill="#444444"/>
<path d="M25.5575 31.9999C24.0759 32.0123 22.6081 31.7155 21.2478 31.1283C19.8875 30.5411 18.6646 29.6766 17.6575 28.5899C17.1239 28.1532 16.6555 27.6423 16.2665 27.0729C15.6343 26.1905 15.1415 25.2161 14.8055 24.1839C14.7485 23.8299 14.6985 23.5549 14.6485 23.2709C14.4894 22.5011 14.3984 21.7187 14.3765 20.9329C14.4044 19.6761 14.643 18.4328 15.0825 17.2549C15.4002 16.2973 15.8989 15.4095 16.5515 14.6399C16.881 14.1469 17.2556 13.6856 17.6705 13.2619C18.701 12.2212 19.9289 11.3966 21.2821 10.8365C22.6354 10.2763 24.0869 9.99193 25.5515 9.99994C27.018 9.98291 28.4727 10.2632 29.8279 10.8238C31.1831 11.3845 32.4106 12.2138 33.4365 13.2619C33.9485 13.6626 34.3882 14.148 34.7365 14.6969C35.3715 15.4506 35.8562 16.3189 36.1645 17.2549C36.5621 18.4394 36.7562 19.6826 36.7385 20.9319C36.7539 22.0302 36.6087 23.1247 36.3075 24.1809C36.0265 25.2445 35.523 26.2363 34.8305 27.0909C34.4222 27.6835 33.9301 28.2137 33.3695 28.6649C32.38 29.7466 31.1702 30.6037 29.8217 31.1786C28.4731 31.7536 27.017 32.0329 25.5515 31.9979L25.5575 31.9999ZM25.5575 11.3339C24.2687 11.3267 22.9914 11.5771 21.8007 12.0703C20.6099 12.5634 19.5297 13.2896 18.6235 14.2059C18.2552 14.585 17.9225 14.9971 17.6295 15.4369C17.0667 16.0957 16.6359 16.8565 16.3605 17.6779C15.9696 18.7207 15.7536 19.8208 15.7215 20.9339C15.7442 21.6416 15.8288 22.346 15.9745 23.0389C16.0285 23.3389 16.0745 23.6279 16.1195 23.9059C16.4165 24.7584 16.8341 25.5639 17.3595 26.2979C17.6943 26.7847 18.0955 27.2222 18.5515 27.5979C19.4406 28.5695 20.5231 29.3443 21.7295 29.8725C22.9359 30.4007 24.2395 30.6706 25.5565 30.6649C26.8562 30.6903 28.1462 30.4368 29.3396 29.9213C30.533 29.4059 31.602 28.6405 32.4745 27.6769C32.972 27.2704 33.4096 26.7958 33.7745 26.2669C34.3577 25.5481 34.7802 24.7127 35.0135 23.8169C35.2796 22.8796 35.407 21.9082 35.3915 20.9339C35.4123 19.828 35.2432 18.7267 34.8915 17.6779C34.628 16.8773 34.2112 16.1355 33.6645 15.4939C33.3701 15.0255 32.9981 14.6106 32.5645 14.2669C31.6613 13.3241 30.5737 12.5771 29.3695 12.0725C28.1652 11.568 26.87 11.3165 25.5645 11.3339H25.5575Z" fill="#444444"/>
</svg>
