<svg width="52" height="42" viewBox="0 0 52 42" fill="none" xmlns="http://www.w3.org/2000/svg">
<path d="M25.4204 34.4954C23.6792 34.4993 21.9563 34.1401 20.3617 33.4407C18.7671 32.7413 17.3359 31.717 16.1594 30.4334C14.7632 29.2839 13.6483 27.8303 12.9002 26.1837C12.1522 24.5371 11.7907 22.7412 11.8434 20.9334C11.7757 19.1114 12.1351 17.2988 12.893 15.6406C13.651 13.9823 14.7864 12.5244 16.2084 11.3834C17.3998 10.1448 18.8309 9.16179 20.4144 8.49421C21.998 7.82664 23.7009 7.48849 25.4194 7.50038C27.2131 7.44341 28.9988 7.76259 30.6617 8.43737C32.3245 9.11216 33.8277 10.1276 35.0744 11.4184C36.424 12.596 37.4898 14.0636 38.1922 15.7113C38.8946 17.359 39.2153 19.1442 39.1304 20.9334C39.1985 22.7248 38.8682 24.509 38.1633 26.1573C37.4585 27.8056 36.3967 29.277 35.0544 30.4654C33.8294 31.7869 32.3357 32.8308 30.6736 33.5268C29.0114 34.2228 27.2196 34.5547 25.4184 34.5004L25.4204 34.4954ZM25.4204 8.50438C23.8242 8.48817 22.2418 8.80219 20.7727 9.4267C19.3036 10.0512 17.9794 10.9727 16.8834 12.1334C15.5708 13.1832 14.5224 14.5262 13.8226 16.0544C13.1227 17.5827 12.7908 19.2537 12.8534 20.9334C12.7948 22.6058 13.1257 24.2689 13.8198 25.7916C14.514 27.3142 15.5525 28.6548 16.8534 29.7074C17.9388 30.8996 19.2612 31.852 20.7359 32.5036C22.2106 33.1552 23.8052 33.4916 25.4174 33.4914C27.0885 33.5513 28.7527 33.2472 30.2946 32.6002C31.8366 31.9532 33.2194 30.9788 34.3474 29.7444C35.5973 28.6532 36.5854 27.2945 37.2382 25.7691C37.891 24.2438 38.1919 22.5909 38.1184 20.9334C38.2095 19.2832 37.9207 17.6342 37.2742 16.1132C36.6277 14.5922 35.6408 13.2399 34.3894 12.1604C33.2322 10.9588 31.836 10.0132 30.2908 9.38431C28.7456 8.75546 27.0858 8.45741 25.4184 8.50938L25.4204 8.50438Z" fill="#444444"/>
<path d="M25.5554 13.8604C25.1687 13.8692 24.7852 13.7887 24.4347 13.6251C24.0842 13.4616 23.7761 13.2194 23.5344 12.9174C23.2479 12.6521 23.0216 12.3284 22.8708 11.9682C22.7201 11.608 22.6483 11.2197 22.6604 10.8294C22.6521 10.4512 22.7287 10.076 22.8844 9.73125C23.0401 9.38654 23.2712 9.0811 23.5604 8.83738C23.8037 8.54759 24.1091 8.31624 24.4539 8.16045C24.7987 8.00466 25.1742 7.92842 25.5524 7.93738C25.9512 7.92707 26.3476 8.00285 26.7145 8.15954C27.0813 8.31623 27.4101 8.55015 27.6784 8.84538C27.9713 9.08619 28.2052 9.39078 28.3622 9.73587C28.5192 10.081 28.5952 10.4574 28.5844 10.8364C28.5941 11.2346 28.5182 11.6303 28.3619 11.9967C28.2057 12.3631 27.9726 12.6917 27.6784 12.9604C27.41 13.2554 27.0812 13.4893 26.7143 13.6459C26.3475 13.8026 25.9512 13.8785 25.5524 13.8684L25.5554 13.8604ZM25.5554 8.60538C25.2733 8.5965 24.9928 8.65267 24.7358 8.76955C24.4788 8.88642 24.2522 9.06087 24.0734 9.27938C24.0545 9.3052 24.0315 9.32782 24.0054 9.34638C23.7869 9.52509 23.6126 9.75175 23.4958 10.0088C23.3791 10.2658 23.3232 10.5462 23.3324 10.8284C23.3223 11.1381 23.3806 11.4463 23.5032 11.731C23.6257 12.0156 23.8095 12.2698 24.0414 12.4754C24.2212 12.7034 24.4516 12.8864 24.7144 13.0098C24.9772 13.1332 25.2652 13.1937 25.5554 13.1864C25.8657 13.1964 26.1743 13.1379 26.4593 13.015C26.7443 12.8921 26.9988 12.7078 27.2044 12.4754C27.4364 12.2698 27.6201 12.0156 27.7427 11.731C27.8652 11.4463 27.9235 11.1381 27.9134 10.8284C27.9228 10.5461 27.8669 10.2655 27.75 10.0084C27.6331 9.75137 27.4584 9.52479 27.2394 9.34638C27.0307 9.1064 26.7715 8.91552 26.4804 8.78742C26.1892 8.65932 25.8734 8.59716 25.5554 8.60538Z" fill="#444444"/>
<path d="M19.2234 15.7464C19.201 15.7468 19.1785 15.7448 19.1564 15.7404C18.3837 15.581 17.6918 15.1543 17.2024 14.5354C16.9376 14.2397 16.7566 13.8787 16.678 13.4897C16.5994 13.1006 16.6262 12.6976 16.7554 12.3224C16.8551 11.5586 17.2145 10.8524 17.7734 10.3224C18.1086 10.0894 18.4867 9.92525 18.8858 9.83942C19.2849 9.75359 19.6971 9.7478 20.0984 9.82238C20.4967 9.87406 20.8791 10.0111 21.2196 10.224C21.5601 10.437 21.8507 10.7209 22.0714 11.0564C22.4416 11.7489 22.5966 12.5362 22.5164 13.3174C22.4846 13.7052 22.3544 14.0786 22.1381 14.4021C21.9218 14.7256 21.6266 14.9887 21.2804 15.1664C20.683 15.5929 19.9557 15.798 19.2234 15.7464ZM19.5234 10.4464C19.0467 10.4569 18.5819 10.5977 18.1794 10.8534C17.7437 11.3035 17.4688 11.885 17.3974 12.5074C17.3013 12.7842 17.2823 13.082 17.3425 13.3688C17.4028 13.6556 17.54 13.9206 17.7394 14.1354C18.1198 14.6159 18.6554 14.9493 19.2544 15.0784C19.843 15.1214 20.4277 14.9541 20.9044 14.6064C20.9279 14.589 20.9535 14.5746 20.9804 14.5634C21.4244 14.3854 21.7004 13.9514 21.8534 13.1944C21.8989 12.5603 21.7651 11.9261 21.4674 11.3644C21.293 11.1201 21.0684 10.9159 20.8087 10.7653C20.549 10.6148 20.2601 10.5214 19.9614 10.4914C19.8167 10.4615 19.6693 10.4464 19.5214 10.4464H19.5234Z" fill="#444444"/>
<path d="M15.9384 20.7944C15.5485 20.792 15.1626 20.7153 14.8014 20.5684C14.2403 20.4036 13.7263 20.1082 13.3014 19.7064C13.1904 19.6174 13.0824 19.5304 12.9724 19.4474C12.9016 19.3962 12.8536 19.3194 12.8384 19.2334C12.697 18.4843 12.697 17.7154 12.8384 16.9664C13.1011 16.2403 13.5669 15.6051 14.1804 15.1364C14.2036 15.1175 14.2301 15.1029 14.2584 15.0934C14.9631 14.819 15.7347 14.7656 16.4704 14.9404C16.881 15.0362 17.2635 15.2263 17.5878 15.4957C17.912 15.7651 18.1691 16.1063 18.3384 16.4924C18.7145 17.1656 18.8169 17.9577 18.6244 18.7044C18.618 18.7424 18.604 18.7788 18.5834 18.8114C18.2249 19.4723 17.7372 20.0545 17.1494 20.5234C17.1255 20.5411 17.0992 20.5556 17.0714 20.5664C16.7116 20.7143 16.3265 20.7914 15.9374 20.7934L15.9384 20.7944ZM13.4864 18.9944C13.5654 19.0564 13.6454 19.1204 13.7234 19.1834C14.0839 19.5257 14.518 19.7809 14.9924 19.9294C15.2733 20.0541 15.5763 20.1213 15.8836 20.127C16.1909 20.1326 16.4962 20.0767 16.7814 19.9624C17.2674 19.5619 17.6727 19.0725 17.9754 18.5204C18.123 17.9363 18.0376 17.3177 17.7374 16.7954C17.6095 16.4968 17.4129 16.2325 17.1638 16.024C16.9147 15.8156 16.6199 15.6687 16.3034 15.5954C15.7213 15.4717 15.1163 15.5101 14.5544 15.7064C14.0754 16.0826 13.7073 16.5816 13.4894 17.1504C13.3837 17.7605 13.3837 18.3843 13.4894 18.9944H13.4864Z" fill="#444444"/>
<path d="M31.3834 15.7974C30.8127 15.8005 30.2565 15.6172 29.7994 15.2754C29.1803 14.7862 28.7536 14.0942 28.5944 13.3214C28.5131 12.9172 28.5255 12.4997 28.6305 12.1011C28.7356 11.7024 28.9305 11.333 29.2004 11.0214C29.6446 10.446 30.2951 10.0659 31.0144 9.96138C31.7884 9.84634 32.5785 9.99948 33.2534 10.3954C33.2854 10.4119 33.3144 10.4336 33.3394 10.4594C33.913 10.9685 34.3206 11.6381 34.5094 12.3814C34.5748 12.7916 34.5524 13.211 34.4438 13.6119C34.3352 14.0128 34.1429 14.3862 33.8794 14.7074C33.6434 15.0017 33.3503 15.2452 33.0178 15.4234C32.6853 15.6016 32.3202 15.7108 31.9444 15.7444C31.7608 15.7815 31.5738 15.8002 31.3864 15.8004L31.3834 15.7974ZM31.5124 10.5914C31.3861 10.5913 31.26 10.602 31.1354 10.6234C30.5806 10.7006 30.078 10.9921 29.7354 11.4354C29.5255 11.6709 29.373 11.9518 29.2899 12.2561C29.2068 12.5604 29.1954 12.8799 29.2564 13.1894C29.3812 13.8011 29.7171 14.3494 30.2054 14.7384C30.4357 14.9068 30.6991 15.0244 30.9781 15.0836C31.2572 15.1427 31.5457 15.1419 31.8244 15.0814C32.1251 15.0603 32.4182 14.9769 32.6848 14.8364C32.9515 14.696 33.186 14.5015 33.3734 14.2654C33.5756 14.0124 33.722 13.7196 33.8032 13.4062C33.8843 13.0927 33.8984 12.7656 33.8444 12.4464C33.6784 11.8751 33.3518 11.3635 32.9034 10.9724C32.4758 10.7397 32 10.6096 31.5134 10.5924L31.5124 10.5914Z" fill="#444444"/>
<path d="M15.8874 27.0674C15.414 27.0554 14.9475 26.9518 14.5134 26.7624C14.1377 26.5793 13.805 26.3186 13.5375 25.9975C13.2699 25.6763 13.0736 25.302 12.9614 24.8994C12.7918 24.1626 12.8461 23.392 13.1174 22.6864C13.5192 21.98 14.1563 21.4371 14.9174 21.1524C15.2012 21.0874 15.4913 21.0539 15.7824 21.0524C16.2946 21.0475 16.7979 21.186 17.2354 21.4524C17.5925 21.6309 17.9089 21.8812 18.1648 22.1877C18.4207 22.4942 18.6105 22.8501 18.7224 23.2334C18.8646 23.615 18.9122 24.0254 18.8612 24.4294C18.8102 24.8334 18.662 25.2191 18.4294 25.5534C18.2685 25.8823 18.0385 26.1726 17.7551 26.4046C17.4718 26.6365 17.1417 26.8046 16.7874 26.8974C16.501 27.0109 16.1955 27.0686 15.8874 27.0674ZM15.7874 21.7214C15.5609 21.7237 15.3352 21.7482 15.1134 21.7944C14.5292 22.0247 14.0388 22.444 13.7204 22.9854C13.5162 23.5572 13.4836 24.1762 13.6264 24.7664C13.7217 25.0652 13.8755 25.342 14.079 25.5807C14.2825 25.8193 14.5315 26.015 14.8114 26.1564C15.3498 26.416 15.9682 26.4558 16.5354 26.2674C17.2474 25.9814 17.6234 25.7554 17.8294 25.2414C18.0136 24.9897 18.1343 24.6973 18.1814 24.3889C18.2284 24.0806 18.2003 23.7655 18.0994 23.4704C18.0124 23.1662 17.8647 22.8827 17.6651 22.6371C17.4656 22.3915 17.2184 22.1889 16.9384 22.0414C16.5914 21.8262 16.1908 21.7132 15.7824 21.7154L15.7874 21.7214Z" fill="#444444"/>
<path d="M35.0474 27.2034C34.7158 27.2012 34.3866 27.1459 34.0724 27.0394C33.6856 26.9414 33.329 26.7494 33.0344 26.4804C32.7397 26.2114 32.5161 25.8737 32.3834 25.4974C32.1798 25.1578 32.0612 24.7741 32.0379 24.3788C32.0146 23.9836 32.0871 23.5885 32.2494 23.2274C32.3707 22.8636 32.566 22.5288 32.8229 22.2442C33.0799 21.9595 33.3929 21.7311 33.7424 21.5734C34.0815 21.3588 34.4687 21.2322 34.8691 21.2047C35.2694 21.1773 35.6703 21.2501 36.0354 21.4164C36.7414 21.6846 37.3583 22.1449 37.8164 22.7454C37.8463 22.786 37.8668 22.8328 37.8764 22.8824C38.0195 23.5929 38.0195 24.3248 37.8764 25.0354C37.7011 25.6535 37.331 26.1985 36.8211 26.5894C36.3113 26.9804 35.6889 27.1964 35.0464 27.2054L35.0474 27.2034ZM34.9214 21.8834C34.6301 21.8756 34.3444 21.9649 34.1094 22.1374C34.0856 22.1548 34.0602 22.1699 34.0334 22.1824C33.7589 22.3029 33.5133 22.4808 33.3131 22.7039C33.1129 22.9271 32.9626 23.1904 32.8724 23.4764C32.7486 23.7506 32.6939 24.051 32.7133 24.3512C32.7326 24.6515 32.8254 24.9424 32.9834 25.1984C33.0781 25.4857 33.2428 25.745 33.4625 25.9529C33.6823 26.1608 33.9503 26.3108 34.2424 26.3894C34.4998 26.4791 34.7699 26.527 35.0424 26.5314C35.3905 26.5291 35.7331 26.4448 36.0424 26.2854C36.319 26.144 36.5646 25.949 36.7649 25.7118C36.9653 25.4745 37.1164 25.1997 37.2094 24.9034C37.3294 24.3054 37.3341 23.6901 37.2234 23.0904C36.8495 22.6238 36.359 22.2644 35.8014 22.0484C35.5179 21.9475 35.2203 21.8921 34.9194 21.8844L34.9214 21.8834Z" fill="#444444"/>
<path d="M31.3154 32.2074C31.1687 32.208 31.0223 32.1935 30.8784 32.1644C30.4948 32.1208 30.1271 31.9859 29.8063 31.771C29.4855 31.5562 29.2208 31.2676 29.0344 30.9294C28.5833 30.292 28.3767 29.5136 28.4524 28.7364C28.4942 28.3312 28.6244 27.9401 28.8341 27.5909C29.0437 27.2417 29.3275 26.9428 29.6654 26.7154C29.6887 26.6977 29.7143 26.6832 29.7414 26.6724C30.3752 26.3928 31.0598 26.2471 31.7524 26.2444C32.1678 26.2701 32.5706 26.3966 32.9261 26.613C33.2815 26.8294 33.5789 27.1292 33.7924 27.4864C34.0627 27.7616 34.2579 28.1016 34.3593 28.4738C34.4607 28.8461 34.4648 29.2381 34.3714 29.6124C34.2191 30.4081 33.8081 31.1313 33.2024 31.6694C33.1693 31.7006 33.1311 31.726 33.0894 31.7444C32.5319 32.0093 31.9293 32.1668 31.3134 32.2084L31.3154 32.2074ZM30.0334 27.2824C29.7894 27.4486 29.5827 27.6639 29.4264 27.9144C29.27 28.1648 29.1676 28.4451 29.1254 28.7374C29.0474 29.3779 29.213 30.0243 29.5894 30.5484C29.6107 30.5743 29.6279 30.6033 29.6404 30.6344C29.8184 31.0784 30.2544 31.3544 31.0114 31.5074C31.6222 31.5586 32.2348 31.4333 32.7764 31.1464C33.2622 30.713 33.5909 30.1311 33.7114 29.4914C33.7827 29.2103 33.7791 28.9154 33.701 28.6361C33.623 28.3568 33.4731 28.1028 33.2664 27.8994C33.1063 27.6187 32.8792 27.382 32.6055 27.2104C32.3317 27.0387 32.0198 26.9374 31.6974 26.9154C31.1237 26.929 30.5582 27.0544 30.0324 27.2844L30.0334 27.2824Z" fill="#444444"/>
<path d="M19.5984 32.0724C18.9895 32.0526 18.3938 31.8899 17.8594 31.5974C17.1956 31.1262 16.7438 30.4129 16.6014 29.6114C16.5144 29.2184 16.5107 28.8116 16.5906 28.4172C16.6705 28.0227 16.8323 27.6494 17.0654 27.3214C17.6205 26.732 18.3625 26.3528 19.1654 26.2484C19.3609 26.1701 19.57 26.1317 19.7804 26.1354C20.3388 26.1569 20.8748 26.3606 21.3064 26.7154C21.6482 26.9276 21.9279 27.2262 22.1175 27.581C22.3071 27.9358 22.3999 28.3343 22.3864 28.7364C22.5013 29.4647 22.399 30.2108 22.0924 30.8814C22.0765 30.9239 22.0516 30.9624 22.0194 30.9944C21.5024 31.5324 20.8294 31.8945 20.0954 32.0294C19.9313 32.0578 19.765 32.0722 19.5984 32.0724ZM19.7824 26.8084C19.6328 26.8086 19.4845 26.8371 19.3454 26.8924C18.6723 26.9697 18.0463 27.2762 17.5724 27.7604C17.4053 28.0118 17.2916 28.295 17.2386 28.5923C17.1857 28.8896 17.1944 29.1946 17.2644 29.4884C17.3686 30.1084 17.7118 30.6628 18.2204 31.0324C18.756 31.3249 19.3698 31.4421 19.9754 31.3674C20.5513 31.2621 21.081 30.9829 21.4934 30.5674C21.74 30.0139 21.8189 29.4003 21.7204 28.8024C21.7365 28.5007 21.6723 28.2002 21.5344 27.9315C21.3965 27.6627 21.1898 27.4353 20.9354 27.2724C20.6081 27.0032 20.2049 26.8412 19.7824 26.8084Z" fill="#444444"/>
<path d="M25.4214 33.9234C25.0335 33.9455 24.645 33.8884 24.2799 33.7555C23.9147 33.6226 23.5804 33.4167 23.2974 33.1504C23.0136 32.8737 22.7874 32.5436 22.6319 32.179C22.4764 31.8145 22.3947 31.4227 22.3914 31.0264C22.3824 30.6396 22.4628 30.256 22.6264 29.9055C22.7899 29.5549 23.0323 29.2469 23.3344 29.0054C23.8712 28.4085 24.6203 28.0456 25.4214 27.9944C26.2376 28.0496 26.9999 28.4217 27.5454 29.0314C27.8388 29.2718 28.0732 29.5763 28.2306 29.9215C28.388 30.2666 28.4642 30.6432 28.4534 31.0224C28.45 31.4188 28.3679 31.8107 28.2121 32.1753C28.0562 32.5398 27.8296 32.8699 27.5454 33.1464C27.2629 33.4136 26.9288 33.6204 26.5636 33.754C26.1984 33.8876 25.8097 33.9452 25.4214 33.9234ZM25.4214 28.6684C24.7841 28.7267 24.194 29.0291 23.7744 29.5124C23.5464 29.6921 23.3634 29.9225 23.24 30.1854C23.1166 30.4482 23.0561 30.7361 23.0634 31.0264C23.0673 31.3343 23.1321 31.6383 23.2542 31.921C23.3762 32.2037 23.553 32.4594 23.7744 32.6734C23.9936 32.879 24.2534 33.0364 24.537 33.1356C24.8207 33.2348 25.1219 33.2736 25.4214 33.2494C25.721 33.2739 26.0224 33.2354 26.3061 33.1361C26.5898 33.0369 26.8495 32.8793 27.0684 32.6734C27.2901 32.4596 27.4671 32.2039 27.5892 31.9212C27.7112 31.6385 27.7759 31.3343 27.7794 31.0264C27.7889 30.7441 27.7329 30.4635 27.616 30.2064C27.4991 29.9494 27.3244 29.7228 27.1054 29.5444C26.6779 29.0464 26.0746 28.7326 25.4214 28.6684Z" fill="#444444"/>
<path d="M35.3254 20.9424C34.8132 20.9477 34.3098 20.8092 33.8724 20.5424C33.5002 20.4059 33.1678 20.1791 32.9049 19.8824C32.642 19.5857 32.457 19.2283 32.3664 18.8424C32.1232 18.1138 32.1782 17.3185 32.5194 16.6304C32.8731 15.9349 33.4656 15.3902 34.1884 15.0964C34.5238 15.0268 34.865 14.989 35.2074 14.9834C35.6375 14.9817 36.0635 15.066 36.4604 15.2314C36.836 15.4147 37.1685 15.6755 37.436 15.9966C37.7035 16.3177 37.9 16.6919 38.0124 17.0944C38.1672 17.4576 38.2321 17.8527 38.2016 18.2463C38.1712 18.6399 38.0462 19.0203 37.8374 19.3554C37.6825 19.7048 37.4558 20.0178 37.172 20.274C36.8883 20.5301 36.5539 20.7238 36.1904 20.8424C35.9067 20.9074 35.6166 20.9409 35.3254 20.9424ZM35.2074 15.6524C34.9256 15.6576 34.6447 15.6857 34.3674 15.7364C33.8259 15.9752 33.3848 16.3958 33.1204 16.9254C32.9877 17.194 32.9104 17.4866 32.8932 17.7857C32.876 18.0848 32.9193 18.3843 33.0204 18.6664C33.0896 18.9579 33.2308 19.2274 33.431 19.4503C33.6312 19.6732 33.884 19.8424 34.1664 19.9424C34.4384 20.1065 34.7408 20.2135 35.0554 20.257C35.37 20.3005 35.6902 20.2795 35.9964 20.1954C36.2706 20.1018 36.5221 19.9518 36.7348 19.7551C36.9475 19.5584 37.1167 19.3194 37.2314 19.0534C37.3987 18.7924 37.4986 18.494 37.5222 18.1849C37.5458 17.8758 37.4922 17.5657 37.3664 17.2824C37.2748 16.9717 37.1212 16.6829 36.915 16.4332C36.7088 16.1835 36.4541 15.9781 36.1664 15.8294C35.8621 15.7121 35.5386 15.6528 35.2124 15.6544L35.2074 15.6524Z" fill="#444444"/>
<path d="M48.3274 23.3194H38.6274C38.4973 23.3136 38.3743 23.2578 38.2843 23.1636C38.1942 23.0695 38.1439 22.9442 38.1439 22.8139C38.1439 22.6836 38.1942 22.5583 38.2843 22.4641C38.3743 22.37 38.4973 22.3142 38.6274 22.3084H48.3274C48.5532 22.332 48.7813 22.3095 48.9981 22.2423C49.2148 22.1751 49.4157 22.0645 49.5884 21.9174C49.7404 21.7986 49.8657 21.6491 49.9562 21.4787C50.0466 21.3083 50.1002 21.1208 50.1134 20.9284C50.0573 20.5476 49.8719 20.1977 49.5884 19.9374C49.1915 19.7621 48.7613 19.6748 48.3274 19.6814H38.6274C38.5592 19.6844 38.491 19.6736 38.427 19.6496C38.363 19.6255 38.3046 19.5888 38.2552 19.5415C38.2058 19.4943 38.1665 19.4375 38.1396 19.3747C38.1128 19.3119 38.0989 19.2442 38.0989 19.1759C38.0989 19.1075 38.1128 19.0399 38.1396 18.9771C38.1665 18.9142 38.2058 18.8575 38.2552 18.8102C38.3046 18.763 38.363 18.7262 38.427 18.7022C38.491 18.6782 38.5592 18.6673 38.6274 18.6704H48.3274C48.9929 18.6609 49.6489 18.8294 50.2274 19.1584C50.7423 19.6111 51.0643 20.2437 51.1274 20.9264C51.1132 21.2507 51.033 21.5688 50.8917 21.8611C50.7503 22.1534 50.5509 22.4138 50.3054 22.6264C50.0393 22.8671 49.7275 23.052 49.3886 23.17C49.0497 23.288 48.6905 23.3367 48.3324 23.3134L48.3274 23.3194Z" fill="#444444"/>
<path d="M25.4204 28.7354C23.4087 28.69 21.4926 27.8679 20.0734 26.4414C19.2913 25.7525 18.6662 24.9038 18.2404 23.9525C17.8146 23.0012 17.5981 21.9696 17.6054 20.9274C17.5959 19.9045 17.8122 18.892 18.2388 17.9623C18.6654 17.0325 19.2918 16.2083 20.0734 15.5484C21.5356 14.2051 23.4355 13.438 25.4204 13.3894C26.4363 13.3654 27.4466 13.5457 28.3914 13.9197C29.3362 14.2937 30.1962 14.8536 30.9204 15.5664C31.6978 16.2176 32.3121 17.0417 32.7141 17.9727C33.1161 18.9038 33.2946 19.916 33.2354 20.9284C33.2693 21.9616 33.0782 22.9899 32.6754 23.942C32.2725 24.8941 31.6676 25.7472 30.9024 26.4424C30.2063 27.1948 29.3567 27.789 28.4111 28.1848C27.4655 28.5805 26.446 28.7686 25.4214 28.7364L25.4204 28.7354ZM25.4204 14.4654C23.6949 14.5183 22.0467 15.1931 20.7794 16.3654C20.1158 16.9262 19.5836 17.6261 19.2207 18.4155C18.8578 19.2049 18.673 20.0645 18.6794 20.9334C18.6739 21.825 18.8596 22.7074 19.2241 23.5211C19.5886 24.3349 20.1234 25.0609 20.7924 25.6504C22.0171 26.8918 23.6733 27.6132 25.4164 27.6644C26.2985 27.6933 27.1764 27.5318 27.9904 27.1908C28.8044 26.8498 29.5354 26.3373 30.1334 25.6884C30.7956 25.0904 31.3192 24.3551 31.6677 23.5338C32.0163 22.7125 32.1814 21.8251 32.1514 20.9334C32.2105 20.072 32.0639 19.2088 31.7236 18.4152C31.3834 17.6217 30.8592 16.9204 30.1944 16.3694C29.5691 15.7444 28.8228 15.2535 28.0013 14.9268C27.1798 14.6001 26.3002 14.4445 25.4164 14.4694L25.4204 14.4654Z" fill="#444444"/>
<path d="M25.4204 26.7204C25.3133 26.7201 25.2106 26.6777 25.1344 26.6024L19.6104 21.0784C19.5722 21.0407 19.542 20.9956 19.5215 20.946C19.5011 20.8963 19.4909 20.8431 19.4914 20.7894C19.4913 20.7359 19.5021 20.683 19.523 20.6338C19.544 20.5847 19.5748 20.5403 19.6134 20.5034L25.1374 15.1134C25.2134 15.0388 25.3155 14.997 25.4219 14.997C25.5284 14.997 25.6305 15.0388 25.7064 15.1134L31.0944 20.5034C31.1319 20.5406 31.1617 20.5848 31.182 20.6335C31.2023 20.6823 31.2128 20.7346 31.2128 20.7874C31.2128 20.8402 31.2023 20.8925 31.182 20.9412C31.1617 20.99 31.1319 21.0342 31.0944 21.0714L25.7064 26.5954C25.6706 26.6363 25.626 26.6685 25.576 26.6896C25.5259 26.7107 25.4717 26.7202 25.4174 26.7174L25.4204 26.7204ZM20.4704 20.7964L25.4184 25.7414L30.2454 20.7964L25.4214 15.9704L20.4734 20.7964H20.4704Z" fill="#444444"/>
<path d="M12.0794 23.3204H3.05644C2.31659 23.3503 1.58927 23.1227 0.998437 22.6764C0.738733 22.4614 0.526698 22.1947 0.375867 21.8932C0.225036 21.5917 0.138722 21.2621 0.122437 20.9254C0.176639 20.2765 0.469518 19.6708 0.944436 19.2254C0.982903 19.1853 1.02745 19.1516 1.07644 19.1254C1.69514 18.8312 2.37136 18.6779 3.05644 18.6764H12.0824C12.1507 18.6733 12.2189 18.6842 12.2829 18.7082C12.3468 18.7322 12.4053 18.769 12.4547 18.8162C12.5041 18.8635 12.5434 18.9202 12.5702 18.9831C12.5971 19.0459 12.6109 19.1135 12.6109 19.1819C12.6109 19.2502 12.5971 19.3179 12.5702 19.3807C12.5434 19.4435 12.5041 19.5003 12.4547 19.5475C12.4053 19.5948 12.3468 19.6315 12.2829 19.6556C12.2189 19.6796 12.1507 19.6904 12.0824 19.6874H3.05644C2.556 19.6921 2.06183 19.7993 1.60444 20.0024C1.34762 20.2516 1.18179 20.5798 1.13344 20.9344C1.14623 21.127 1.19973 21.3148 1.2904 21.4853C1.38106 21.6557 1.50684 21.8051 1.65944 21.9234C2.06712 22.2063 2.55807 22.344 3.05344 22.3144H12.0794C12.2134 22.3144 12.3418 22.3676 12.4365 22.4623C12.5312 22.557 12.5844 22.6854 12.5844 22.8194C12.5844 22.9533 12.5312 23.0818 12.4365 23.1765C12.3418 23.2712 12.2134 23.3244 12.0794 23.3244V23.3204Z" fill="#444444"/>
</svg>
