<svg width="52" height="42" viewBox="0 0 52 42" fill="none" xmlns="http://www.w3.org/2000/svg">
<path d="M7.74707 26.4392C7.61527 26.4394 7.48863 26.3881 7.39407 26.2962L2.39407 21.4342C2.34568 21.3876 2.30719 21.3317 2.2809 21.2698C2.25461 21.208 2.24106 21.1415 2.24106 21.0742C2.24106 21.007 2.25461 20.9405 2.2809 20.8787C2.30719 20.8168 2.34568 20.7609 2.39407 20.7142L7.39407 15.7142C7.49046 15.6197 7.62003 15.5665 7.75507 15.5662C7.82219 15.5665 7.88856 15.5803 7.95024 15.6067C8.01191 15.6332 8.06763 15.6718 8.11407 15.7202L12.9761 20.7202C13.0699 20.815 13.1225 20.9429 13.1225 21.0762C13.1225 21.2096 13.0699 21.3375 12.9761 21.4322L8.10607 26.2942C8.05925 26.3415 8.00346 26.3789 7.94199 26.4043C7.88052 26.4297 7.81459 26.4426 7.74807 26.4422L7.74707 26.4392ZM3.47307 21.0662L7.74407 25.2212L11.8991 21.0662L7.74407 16.7952L3.47307 21.0662Z" fill="#444444"/>
<path d="M25.9301 29.6322C25.8631 29.6323 25.7967 29.6187 25.7352 29.5922C25.6736 29.5657 25.6181 29.5269 25.5721 29.4782L17.8721 21.4442C17.7771 21.3429 17.7242 21.2092 17.7242 21.0702C17.7242 20.9313 17.7771 20.7976 17.8721 20.6962L25.5721 12.6622C25.6181 12.6136 25.6735 12.5749 25.7349 12.5484C25.7964 12.5219 25.8626 12.5083 25.9296 12.5083C25.9965 12.5083 26.0627 12.5219 26.1242 12.5484C26.1857 12.5749 26.2411 12.6136 26.2871 12.6622L33.9871 20.6962C34.0822 20.7973 34.1352 20.9309 34.1352 21.0697C34.1352 21.2086 34.0822 21.3422 33.9871 21.4432L26.2871 29.4772C26.2411 29.526 26.1856 29.5649 26.124 29.5914C26.0625 29.6179 25.9961 29.6314 25.9291 29.6312L25.9301 29.6322ZM18.9481 21.0702L25.9311 28.3572L32.9131 21.0702L25.9311 13.7842L18.9481 21.0702Z" fill="#444444"/>
<path d="M44.3671 26.5772C44.3006 26.5773 44.2348 26.5643 44.1733 26.5389C44.1119 26.5135 44.0561 26.4762 44.0091 26.4292L39.0091 21.4292C38.9145 21.3339 38.8614 21.2051 38.8614 21.0707C38.8614 20.9364 38.9145 20.8076 39.0091 20.7122L44.0091 15.7122C44.1044 15.6177 44.2333 15.5646 44.3676 15.5646C44.5019 15.5646 44.6307 15.6177 44.7261 15.7122L49.7261 20.7122C49.8205 20.8072 49.8736 20.9358 49.8736 21.0697C49.8736 21.2037 49.8205 21.3323 49.7261 21.4272L44.7261 26.4272C44.6791 26.4746 44.6232 26.5121 44.5615 26.5375C44.4999 26.5629 44.4338 26.5758 44.3671 26.5752V26.5772ZM40.0851 21.0772L44.3671 25.3612L48.6491 21.0792L44.3671 16.7992L40.0851 21.0772Z" fill="#444444"/>
<path d="M7.88307 28.5532C6.90776 28.5503 5.94334 28.348 5.0491 27.9586C4.15486 27.5693 3.34969 27.0012 2.68307 26.2892C1.99955 25.6091 1.46393 24.795 1.10979 23.8982C0.755647 23.0013 0.590626 22.0409 0.625074 21.0772C0.605394 19.0717 1.32482 17.1292 2.64607 15.6202C3.31531 14.8986 4.12564 14.3221 5.02683 13.9264C5.92802 13.5308 6.90087 13.3245 7.88507 13.3202C8.83092 13.3164 9.76605 13.5205 10.6243 13.9179C11.4826 14.3153 12.2431 14.8965 12.8521 15.6202C14.2657 17.0815 15.0412 19.0444 15.0081 21.0772C15.0379 22.0527 14.8573 23.0232 14.4788 23.9227C14.1002 24.8222 13.5324 25.6297 12.8141 26.2902C12.2188 27.0181 11.4652 27.6004 10.6106 27.9926C9.75598 28.3848 8.82307 28.5766 7.88307 28.5532ZM7.88307 14.3812C7.03308 14.3866 6.19314 14.5656 5.41483 14.9072C4.63652 15.2489 3.93627 15.7461 3.35707 16.3682C2.22917 17.6751 1.61782 19.3491 1.63807 21.0752C1.60446 21.8911 1.7398 22.7052 2.03561 23.4663C2.33142 24.2274 2.78132 24.9192 3.35707 25.4982C3.93639 26.121 4.63688 26.6187 5.41553 26.9609C6.19418 27.3032 7.03456 27.4826 7.88507 27.4882C8.69057 27.5112 9.49042 27.347 10.2218 27.0087C10.9531 26.6703 11.5961 26.167 12.1001 25.5382C12.7228 24.9777 13.2154 24.2878 13.5436 23.5169C13.8718 22.746 14.0276 21.9127 14.0001 21.0752C14.0178 20.2023 13.861 19.3346 13.5388 18.523C13.2167 17.7114 12.7357 16.9724 12.1241 16.3492C11.6091 15.7269 10.9618 15.2273 10.2294 14.8867C9.49696 14.5461 8.6978 14.3731 7.89007 14.3802L7.88307 14.3812Z" fill="#444444"/>
<path d="M44.3671 28.5532C42.4222 28.559 40.5536 27.7972 39.1671 26.4332C38.4486 25.7427 37.8823 24.9096 37.5045 23.9875C37.1267 23.0653 36.9457 22.0744 36.9731 21.0782C36.9351 18.993 37.7156 16.9759 39.1471 15.4592C40.5538 14.1116 42.4191 13.3472 44.3671 13.3202C45.3166 13.3051 46.2589 13.4874 47.1343 13.8556C48.0096 14.2238 48.7989 14.7699 49.4521 15.4592C50.1704 16.2038 50.7328 17.0844 51.1061 18.0494C51.4794 19.0143 51.6562 20.0441 51.6261 21.0782C51.6536 22.0743 51.4728 23.0652 51.0952 23.9874C50.7175 24.9095 50.1514 25.7426 49.4331 26.4332C48.7982 27.1398 48.0143 27.6965 47.138 28.0632C46.2617 28.4298 45.3159 28.5972 44.3671 28.5532ZM44.3671 14.3812C42.6805 14.4042 41.065 15.0644 39.8451 16.2292C38.6178 17.5416 37.9509 19.2808 37.9861 21.0772C37.956 21.9264 38.1061 22.7724 38.4266 23.5593C38.747 24.3463 39.2304 25.0565 39.8451 25.6432C41.0497 26.8315 42.675 27.4957 44.3671 27.4912C45.1807 27.5323 45.9933 27.3913 46.7456 27.0788C47.4979 26.7662 48.1711 26.2898 48.7161 25.6842C49.341 25.0945 49.8336 24.3788 50.1611 23.5844C50.4887 22.79 50.6437 21.9351 50.6161 21.0763C50.6429 20.1808 50.4908 19.2891 50.1687 18.4532C49.8466 17.6173 49.3609 16.8541 48.7401 16.2082C48.178 15.6178 47.4994 15.1504 46.7474 14.8358C45.9953 14.5211 45.1862 14.366 44.3711 14.3802L44.3671 14.3812Z" fill="#444444"/>
<path d="M25.9301 32.5022C24.4765 32.4774 23.0424 32.164 21.711 31.5804C20.3795 30.9967 19.1773 30.1544 18.1741 29.1022C17.0908 28.0684 16.2358 26.8194 15.6641 25.4354C15.0923 24.0515 14.8164 22.5632 14.8541 21.0662C14.8108 17.9716 15.9977 14.9863 18.1541 12.7662C19.152 11.7114 20.359 10.8763 21.6979 10.3143C23.0368 9.75231 24.4782 9.47573 25.9301 9.50225C27.4037 9.45988 28.8696 9.72927 30.2319 10.2928C31.5942 10.8563 32.822 11.7012 33.8351 12.7722C34.9231 13.8568 35.7773 15.1528 36.3449 16.5804C36.9125 18.0079 37.1814 19.5367 37.1351 21.0722C37.1877 22.5711 36.9186 24.0639 36.346 25.45C35.7733 26.8362 34.9103 28.0836 33.8151 29.1082C32.7961 30.1746 31.5727 31.0246 30.218 31.6078C28.8633 32.1909 27.405 32.4951 25.9301 32.5022ZM25.9301 10.8972C24.6563 10.8675 23.3906 11.1073 22.216 11.6009C21.0414 12.0944 19.9843 12.8306 19.1141 13.7612C18.1674 14.7254 17.4226 15.8687 16.9233 17.1242C16.4239 18.3798 16.1801 19.7223 16.2061 21.0732C16.1723 22.3799 16.4121 23.6792 16.9099 24.8878C17.4078 26.0963 18.1528 27.1875 19.0971 28.0912C19.9801 29.0212 21.0387 29.7669 22.2118 30.2851C23.3848 30.8033 24.6489 31.0838 25.9311 31.1102C27.2355 31.101 28.5248 30.8291 29.7218 30.3105C30.9188 29.792 31.9991 29.0375 32.8981 28.0922C33.8593 27.2014 34.6156 26.1126 35.1149 24.9009C35.6142 23.6892 35.8446 22.3836 35.7901 21.0742C35.8309 19.7214 35.5939 18.3746 35.0938 17.1169C34.5936 15.8593 33.8409 14.7175 32.8821 13.7622C31.9904 12.8224 30.9103 12.0814 29.7125 11.5878C28.5146 11.0943 27.226 10.8593 25.9311 10.8982L25.9301 10.8972Z" fill="#444444"/>
</svg>
