<svg width="52" height="42" viewBox="0 0 51 22" fill="none"
    xmlns="http://www.w3.org/2000/svg">
    <g clip-path="url(#clip0_1705_1847)">
        <g clip-path="url(#clip1_1705_1847)">
            <path d="M42.0036 17.1C37.5136 14.15 32.3436 12.45 27.0036 12.12L29.5036 9.18C29.9036 9.13 30.2536 8.94 30.5136 8.65C30.8136 8.98 31.2336 9.2 31.7236 9.2C32.6136 9.2 33.3436 8.48 33.3436 7.58C33.3436 6.85 32.8536 6.23 32.1836 6.04L33.9936 3.92L31.5136 1H19.8836L17.4036 3.92L19.2136 6.04C18.5436 6.24 18.0536 6.85 18.0536 7.58C18.0536 8.47 18.7736 9.2 19.6736 9.2C20.1536 9.2 20.5836 8.99 20.8836 8.65C21.1336 8.94 21.4936 9.13 21.8936 9.18L24.3836 12.1C19.0336 12.4 13.8536 14.11 9.39356 17.1C9.00356 17.36 8.88356 17.87 9.12356 18.27C9.12356 18.27 9.12356 18.29 9.14356 18.29C9.38356 18.67 9.89356 18.79 10.2736 18.55C20.4236 12.07 30.8136 12.07 41.1836 18.55C41.1836 18.55 41.2036 18.56 41.2136 18.57C41.6036 18.79 42.0936 18.65 42.3136 18.26C42.5436 17.86 42.4236 17.34 42.0336 17.09L42.0036 17.1ZM26.1036 7.58C26.1036 7.14 26.4636 6.79 26.8936 6.79C27.3236 6.79 27.6836 7.15 27.6836 7.58C27.6836 8.01 27.3236 8.37 26.8936 8.37C26.4636 8.37 26.1036 8.02 26.1036 7.58ZM29.3136 8.37C29.0236 8.37 28.7836 8.21 28.6436 7.98C28.5736 7.86 28.5236 7.73 28.5236 7.58C28.5236 7.14 28.8836 6.78 29.3136 6.78C29.4236 6.78 29.5236 6.8 29.6136 6.84C29.9036 6.96 30.1136 7.24 30.1136 7.57C30.1136 8.01 29.7536 8.36 29.3236 8.36L29.3136 8.37ZM31.7236 6.78C32.1636 6.78 32.5136 7.14 32.5136 7.57C32.5136 8 32.1536 8.36 31.7236 8.36C31.2936 8.36 30.9336 8.01 30.9336 7.57C30.9336 7.57 30.9436 7.51 30.9536 7.47C30.9936 7.15 31.2136 6.9 31.5136 6.81C31.5836 6.79 31.6536 6.77 31.7336 6.77L31.7236 6.78ZM20.5236 2.42H30.8336L32.1036 3.91L30.1536 6.2C29.9036 6.05 29.6236 5.96 29.3136 5.96C28.8336 5.96 28.4036 6.17 28.1036 6.51C27.8036 6.18 27.3836 5.96 26.8936 5.96C26.4036 5.96 25.9836 6.17 25.6836 6.51C25.3836 6.18 24.9636 5.96 24.4736 5.96C23.9836 5.96 23.5636 6.17 23.2636 6.51C22.9636 6.18 22.5436 5.96 22.0536 5.96C21.7336 5.96 21.4436 6.06 21.1836 6.21L19.2236 3.9L20.4936 2.41L20.5236 2.42ZM23.6936 7.58C23.6936 7.14 24.0536 6.79 24.4836 6.79C24.9136 6.79 25.2736 7.15 25.2736 7.58C25.2736 8.01 24.9136 8.37 24.4836 8.37C24.0536 8.37 23.6936 8.02 23.6936 7.58ZM19.6636 8.37C19.2236 8.37 18.8736 8.01 18.8736 7.58C18.8736 7.15 19.2336 6.79 19.6636 6.79C19.7436 6.79 19.8136 6.81 19.8836 6.83C20.1836 6.92 20.4036 7.17 20.4436 7.49C20.4436 7.52 20.4636 7.55 20.4636 7.59C20.4636 8.03 20.1036 8.38 19.6736 8.38L19.6636 8.37ZM21.2836 7.58C21.2836 7.25 21.4836 6.98 21.7536 6.85C21.8536 6.81 21.9636 6.78 22.0736 6.78C22.5136 6.78 22.8636 7.14 22.8636 7.57C22.8636 7.73 22.8036 7.87 22.7236 7.99C22.5836 8.21 22.3436 8.36 22.0736 8.36C21.6336 8.36 21.2836 8.01 21.2836 7.57V7.58ZM23.2836 8.65C23.5836 8.98 24.0036 9.2 24.4936 9.2C24.9836 9.2 25.4036 8.99 25.7036 8.65C26.0036 8.98 26.4236 9.2 26.9136 9.2C27.3136 9.2 27.6636 9.05 27.9436 8.82L25.6836 11.47L23.2836 8.65Z" fill="#444444"/>
            <path d="M25.6136 15.71C20.3836 15.79 15.2936 17.55 10.9536 20.77C10.6036 21.03 11.1836 21.42 11.5336 21.18C21.0436 14.92 30.0536 15.02 39.7136 21.06C39.7136 21.06 39.7336 21.07 39.7436 21.08C40.0936 21.3 40.7236 20.98 40.4236 20.76C36.0236 17.56 30.8836 15.81 25.6136 15.71Z" fill="#444444"/>
        </g>
    </g>
    <defs>
        <clipPath id="clip0_1705_1847">
            <rect width="51" height="22" fill="white"/>
        </clipPath>
        <clipPath id="clip1_1705_1847">
            <rect width="33" height="22.255" fill="white" transform="translate(9)"/>
        </clipPath>
    </defs>
</svg>
