<svg width="58" height="42" viewBox="0 0 58 42" fill="none" xmlns="http://www.w3.org/2000/svg">
<path d="M43.001 23.2681C42.3921 23.2738 41.8013 23.0609 41.336 22.6681C41.1118 22.4409 40.9369 22.17 40.8223 21.8721C40.7077 21.5742 40.6559 21.2559 40.67 20.9371C40.6677 20.3523 40.8937 19.7897 41.3 19.3691C41.7714 18.9596 42.3756 18.7353 43 18.7381C43.3113 18.7226 43.6226 18.7705 43.9148 18.879C44.207 18.9874 44.4742 19.1542 44.7 19.3691C45.106 19.7899 45.332 20.3523 45.33 20.9371C45.3537 21.2492 45.3096 21.5628 45.2008 21.8564C45.092 22.1499 44.9211 22.4165 44.6998 22.6378C44.4784 22.8592 44.2118 23.0301 43.9183 23.1389C43.6247 23.2477 43.3112 23.2917 42.999 23.2681H43.001ZM43.001 19.4041C42.5362 19.3993 42.0858 19.5651 41.735 19.8701C41.4744 20.1633 41.3319 20.5428 41.335 20.9351C41.3213 21.1587 41.3528 21.3828 41.4278 21.594C41.5027 21.8052 41.6194 21.9991 41.771 22.1641C42.115 22.4523 42.5513 22.607 43 22.6001C43.2244 22.6237 43.4513 22.5968 43.664 22.5215C43.8768 22.4461 44.07 22.3242 44.2296 22.1646C44.3891 22.0051 44.511 21.8119 44.5864 21.5991C44.6617 21.3864 44.6886 21.1595 44.665 20.9351C44.6656 20.5262 44.5096 20.1326 44.229 19.8351C44.0639 19.6836 43.87 19.567 43.6588 19.4921C43.4477 19.4172 43.2236 19.3855 43 19.3991L43.001 19.4041Z" fill="#444444"/>
<path d="M12.534 27.0031C12.223 27.0059 11.9158 26.9349 11.6376 26.7958C11.3595 26.6567 11.1183 26.4536 10.934 26.2031C10.7126 26.012 10.5332 25.7771 10.4071 25.5133C10.2809 25.2494 10.2108 24.9624 10.201 24.6701C10.2235 24.0255 10.4974 23.4153 10.964 22.9701C11.1539 22.7446 11.3963 22.5692 11.6699 22.4594C11.9435 22.3495 12.2399 22.3086 12.533 22.3401C13.1863 22.3122 13.8271 22.5258 14.333 22.9401C14.7225 23.4292 14.9129 24.0475 14.866 24.6711C14.9008 25.2378 14.7225 25.7971 14.366 26.2391C13.8749 26.7183 13.219 26.9913 12.533 27.0021L12.534 27.0031ZM12.534 23.0031C12.3404 22.9842 12.145 23.0089 11.9622 23.0756C11.7795 23.1422 11.614 23.249 11.478 23.3881C11.1159 23.7191 10.8974 24.1784 10.869 24.6681C10.8809 24.8811 10.9376 25.0892 11.0355 25.2787C11.1334 25.4683 11.2702 25.6351 11.437 25.7681C11.5603 25.9451 11.7249 26.0894 11.9166 26.1883C12.1083 26.2873 12.3213 26.338 12.537 26.3361C13.06 26.3278 13.559 26.1149 13.927 25.7431C14.1302 25.424 14.2266 25.0486 14.202 24.6711C14.2449 24.2386 14.1391 23.8044 13.902 23.4401C13.5186 23.1301 13.033 22.9753 12.541 23.0061L12.534 23.0031Z" fill="#444444"/>
<path d="M8.40299 27.0021C8.09908 27.0198 7.79569 26.9596 7.52161 26.8271C7.24753 26.6946 7.01186 26.4943 6.83699 26.2451C6.61396 26.0517 6.44015 25.8079 6.32991 25.5341C6.21967 25.2602 6.17617 24.9641 6.20299 24.6701C6.16434 24.3559 6.20125 24.037 6.31065 23.7399C6.42005 23.4428 6.59879 23.1762 6.83199 22.9621C7.02212 22.7367 7.26507 22.5618 7.53919 22.4531C7.8133 22.3444 8.11005 22.3052 8.40299 22.3391C8.69546 22.3112 8.99036 22.3532 9.26347 22.4615C9.53657 22.5698 9.78008 22.7414 9.97399 22.9621C10.225 23.1662 10.4246 23.4263 10.5569 23.7216C10.6893 24.0168 10.7506 24.3389 10.736 24.6621C10.7377 24.961 10.6718 25.2564 10.5431 25.5263C10.4144 25.7961 10.2264 26.0333 9.99299 26.2201C9.82632 26.4838 9.58943 26.6959 9.30892 26.8324C9.0284 26.969 8.71537 27.0246 8.40499 26.9931L8.40299 27.0021ZM8.40299 23.0021C7.73799 23.0021 7.50299 23.1481 7.34699 23.3871C7.32255 23.4234 7.29131 23.4546 7.25499 23.4791C6.99599 23.6511 6.87199 24.0401 6.87199 24.6671C6.85311 24.8602 6.87772 25.0551 6.94399 25.2375C7.01027 25.4199 7.11653 25.5851 7.25499 25.7211C7.2868 25.7416 7.31432 25.7681 7.33599 25.7991C7.44786 25.9772 7.60657 26.1212 7.79476 26.2152C7.98295 26.3092 8.19336 26.3496 8.40299 26.3321C9.11499 26.3321 9.33299 26.0571 9.43599 25.8501C9.46241 25.7984 9.50123 25.7541 9.54899 25.7211C9.71082 25.5973 9.84179 25.4377 9.93166 25.2549C10.0215 25.072 10.0678 24.8708 10.067 24.6671C10.0828 24.442 10.0439 24.2164 9.95373 24.0095C9.86354 23.8027 9.72468 23.6207 9.54899 23.4791C9.51233 23.4551 9.48101 23.4237 9.45699 23.3871C9.32094 23.2488 9.15566 23.1427 8.97328 23.0766C8.7909 23.0105 8.59604 22.9861 8.40299 23.0051V23.0021Z" fill="#444444"/>
<path d="M16.904 19.6671C16.5906 19.6855 16.2779 19.6213 15.9971 19.4809C15.7163 19.3405 15.4773 19.1289 15.304 18.8671C15.0838 18.6759 14.9056 18.4411 14.7805 18.1776C14.6554 17.9142 14.5861 17.6277 14.577 17.3361C14.6011 16.8327 14.8101 16.3559 15.164 15.9971L15.31 15.8051C15.5119 15.584 15.7597 15.4097 16.0361 15.2946C16.3126 15.1796 16.6109 15.1265 16.91 15.1391C17.2222 15.1137 17.5362 15.1569 17.8299 15.2657C18.1236 15.3745 18.3898 15.5464 18.61 15.7691C18.9804 16.2121 19.2009 16.761 19.24 17.3371C19.2466 17.8307 19.0783 18.3107 18.765 18.6921L18.654 18.8541C18.4615 19.1336 18.1977 19.3563 17.8899 19.4993C17.5822 19.6423 17.2417 19.7002 16.904 19.6671ZM16.904 15.8051C16.6999 15.792 16.4953 15.8244 16.3051 15.8997C16.1149 15.9751 15.9438 16.0917 15.804 16.2411L15.683 16.4051C15.365 16.8181 15.235 17.0051 15.235 17.3381C15.2472 17.5512 15.3041 17.7593 15.4022 17.9488C15.5002 18.1384 15.6371 18.3051 15.804 18.4381C15.9168 18.6254 16.0793 18.7777 16.2736 18.878C16.4678 18.9783 16.6861 19.0226 16.904 19.0061C17.134 19.04 17.3688 19.0078 17.5812 18.9135C17.7937 18.8191 17.975 18.6664 18.104 18.4731L18.214 18.3121C18.4495 18.0441 18.5765 17.6978 18.57 17.3411C18.5335 16.9196 18.3676 16.5197 18.095 16.1961C17.936 16.0498 17.7473 15.9395 17.5417 15.8729C17.3362 15.8063 17.1186 15.7849 16.904 15.8101V15.8051Z" fill="#444444"/>
<path d="M16.904 27.0031C16.5906 27.0215 16.2779 26.9573 15.9971 26.8169C15.7163 26.6765 15.4773 26.4648 15.304 26.2031C15.0838 26.0118 14.9056 25.7771 14.7805 25.5136C14.6554 25.2501 14.5861 24.9636 14.577 24.6721C14.5992 24.0274 14.8731 23.4172 15.34 22.9721C15.5255 22.7415 15.7671 22.5624 16.0417 22.4521C16.3162 22.3417 16.6146 22.3039 16.908 22.3421C17.2202 22.3166 17.5342 22.3598 17.8279 22.4687C18.1216 22.5775 18.3878 22.7493 18.608 22.9721C19.0014 23.4529 19.2231 24.0511 19.238 24.6721C19.204 25.225 18.9997 25.7539 18.653 26.1861C18.4613 26.4656 18.1983 26.6888 17.8913 26.8325C17.5843 26.9761 17.2445 27.035 16.907 27.0031H16.904ZM16.904 23.0031C16.239 23.0031 16.004 23.1491 15.85 23.3881C15.4869 23.7185 15.2676 24.178 15.239 24.6681C15.2512 24.8811 15.3081 25.0893 15.4062 25.2788C15.5042 25.4683 15.6411 25.6351 15.808 25.7681C15.9208 25.9554 16.0833 26.1076 16.2776 26.2079C16.4718 26.3082 16.6901 26.3526 16.908 26.3361C17.138 26.3699 17.3728 26.3378 17.5852 26.2434C17.7977 26.1491 17.979 25.9964 18.108 25.8031C18.3757 25.4825 18.5384 25.0873 18.574 24.6711C18.5622 24.2041 18.3951 23.7544 18.099 23.3931C17.94 23.2468 17.7513 23.1365 17.5457 23.0699C17.3402 23.0033 17.1226 22.9818 16.908 23.0071L16.904 23.0031Z" fill="#444444"/>
<path d="M51.615 23.2681C51.3027 23.2936 50.9887 23.2503 50.695 23.1413C50.4013 23.0323 50.135 22.8602 49.915 22.6371C49.7003 22.4112 49.5337 22.1441 49.4254 21.8518C49.3171 21.5596 49.2694 21.2484 49.285 20.9371C49.305 20.3568 49.5279 19.8019 49.915 19.3691C50.1349 19.146 50.4012 18.9738 50.6949 18.8648C50.9886 18.7557 51.3027 18.7125 51.615 18.7381C51.9063 18.7248 52.1971 18.7742 52.4677 18.883C52.7382 18.9919 52.9822 19.1577 53.183 19.3691C53.5315 19.8249 53.7493 20.3669 53.813 20.9371C53.7834 21.533 53.5781 22.1067 53.223 22.5861C53.022 22.8112 52.7737 22.9891 52.4959 23.107C52.218 23.2249 51.9176 23.2799 51.616 23.2681H51.615ZM51.615 19.4041C51.3902 19.3793 51.1627 19.4056 50.9496 19.4811C50.7364 19.5566 50.5431 19.6794 50.384 19.8401C50.1206 20.1481 49.9678 20.5353 49.95 20.9401C49.9364 21.1636 49.9678 21.3875 50.0423 21.5987C50.1169 21.8098 50.2331 22.0038 50.384 22.1691C50.5431 22.3299 50.7364 22.4526 50.9496 22.5281C51.1627 22.6036 51.3902 22.63 51.615 22.6051C51.8192 22.6184 52.0238 22.5861 52.214 22.5107C52.4042 22.4353 52.5753 22.3186 52.715 22.1691C52.967 21.8055 53.1175 21.3813 53.151 20.9401C53.0919 20.5232 52.9277 20.1282 52.674 19.7921C52.5348 19.6565 52.3685 19.5518 52.186 19.4849C52.0035 19.418 51.8089 19.3905 51.615 19.4041Z" fill="#444444"/>
<path d="M49.481 19.6671C49.1489 19.6871 48.8169 19.6246 48.5149 19.485C48.2128 19.3454 47.95 19.1331 47.75 18.8671C47.5373 18.6766 47.3723 18.4388 47.2681 18.1729C47.1639 17.907 47.1234 17.6204 47.15 17.3361C47.1368 17.045 47.1863 16.7544 47.2952 16.484C47.404 16.2137 47.5697 15.9698 47.781 15.7691C48.0072 15.5547 48.2744 15.3884 48.5666 15.2801C48.8587 15.1718 49.1698 15.1239 49.481 15.1391C50.0657 15.1375 50.628 15.3635 51.049 15.7691C51.2605 15.97 51.4262 16.2139 51.5351 16.4845C51.644 16.755 51.6934 17.0458 51.68 17.3371C51.7053 17.6297 51.6613 17.924 51.5517 18.1964C51.4421 18.4688 51.2699 18.7116 51.049 18.9051C50.8662 19.1468 50.6289 19.3419 50.3564 19.4745C50.084 19.607 49.784 19.6734 49.481 19.6681V19.6671ZM49.481 15.8051C49.2574 15.7913 49.0332 15.8228 48.822 15.8977C48.6109 15.9726 48.417 16.0894 48.252 16.2411C48.1027 16.3809 47.9861 16.5521 47.9107 16.7422C47.8354 16.9324 47.803 17.1369 47.816 17.3411C47.7902 17.5463 47.8166 17.7548 47.8928 17.9471C47.969 18.1394 48.0926 18.3093 48.252 18.4411C48.3914 18.6328 48.5775 18.7856 48.7926 18.885C49.0078 18.9844 49.2447 19.0271 49.481 19.0091C49.6883 19.0125 49.8934 18.9658 50.0788 18.873C50.2642 18.7802 50.4245 18.6441 50.546 18.4761C50.7126 18.3418 50.8427 18.1677 50.9243 17.9698C51.0059 17.772 51.0364 17.5568 51.013 17.3441C51.0258 17.14 50.9934 16.9355 50.918 16.7454C50.8427 16.5552 50.7262 16.3841 50.577 16.2441C50.281 15.9634 49.889 15.8064 49.481 15.8051Z" fill="#444444"/>
<path d="M45.22 19.6671C44.9067 19.6848 44.5942 19.6203 44.3136 19.4799C44.0329 19.3396 43.7938 19.1283 43.62 18.8671C43.3875 18.6862 43.2002 18.4537 43.073 18.188C42.9458 17.9223 42.8821 17.6307 42.887 17.3361C42.8992 17.0363 42.9733 16.7422 43.1046 16.4724C43.2359 16.2025 43.4216 15.9628 43.65 15.7681C43.8508 15.5567 44.0948 15.3911 44.3654 15.2824C44.6359 15.1737 44.9267 15.1245 45.218 15.1381C45.5104 15.1108 45.8051 15.1533 46.0779 15.2621C46.3506 15.371 46.5937 15.543 46.787 15.7641C47.0259 15.95 47.2189 16.1884 47.351 16.4608C47.4831 16.7332 47.5509 17.0324 47.549 17.3351C47.5642 17.6363 47.5042 17.9366 47.3745 18.209C47.2448 18.4813 47.0495 18.7171 46.806 18.8951C46.6393 19.1587 46.4024 19.3706 46.1218 19.5068C45.8412 19.643 45.5282 19.6982 45.218 19.6661L45.22 19.6671ZM45.22 15.8051C45.0158 15.792 44.8113 15.8243 44.6211 15.8997C44.4309 15.9751 44.2597 16.0917 44.12 16.2411C43.9531 16.3741 43.8162 16.5408 43.7181 16.7304C43.6201 16.9199 43.5631 17.128 43.551 17.3411C43.551 17.8691 43.742 18.0601 44.12 18.4411C44.2327 18.6284 44.3953 18.7806 44.5895 18.8809C44.7837 18.9812 45.002 19.0256 45.22 19.0091C45.932 19.0091 46.152 18.7341 46.255 18.5271C46.2808 18.4756 46.3189 18.4313 46.366 18.3981C46.5398 18.2859 46.6798 18.1285 46.771 17.9429C46.8622 17.7572 46.9013 17.5502 46.884 17.3441C46.8861 17.1394 46.8403 16.9371 46.7504 16.7532C46.6605 16.5694 46.5288 16.4091 46.366 16.2851C46.3296 16.2611 46.2986 16.2298 46.275 16.1931C46.1394 16.0536 45.9742 15.9463 45.7916 15.8792C45.609 15.812 45.4137 15.7867 45.22 15.8051Z" fill="#444444"/>
<path d="M47.219 23.2681C46.9277 23.2815 46.6369 23.2321 46.3664 23.1232C46.0958 23.0143 45.8518 22.8486 45.651 22.6371C45.2742 22.147 45.0546 21.5544 45.021 20.9371C45.0798 20.3881 45.2834 19.8646 45.611 19.4201C45.8119 19.1949 46.0602 19.0169 46.3381 18.899C46.6159 18.7811 46.9164 18.7262 47.218 18.7381C47.5303 18.7125 47.8444 18.7557 48.1381 18.8648C48.4318 18.9738 48.6981 19.146 48.918 19.3691C49.3247 19.7894 49.5509 20.3522 49.548 20.9371C49.5632 21.2483 49.5153 21.5594 49.407 21.8516C49.2987 22.1438 49.1324 22.411 48.918 22.6371C48.6979 22.8598 48.4318 23.0316 48.1383 23.1406C47.8448 23.2496 47.5311 23.2931 47.219 23.2681ZM47.219 19.4041C47.0148 19.3909 46.8102 19.4232 46.62 19.4985C46.4298 19.5739 46.2587 19.6906 46.119 19.8401C45.8857 20.1655 45.736 20.5433 45.683 20.9401C45.7201 21.4028 45.8853 21.846 46.16 22.2201C46.299 22.3545 46.4646 22.4582 46.6461 22.5245C46.8277 22.5908 47.0212 22.6183 47.214 22.6051C47.4388 22.63 47.6663 22.6036 47.8794 22.5281C48.0926 22.4526 48.2859 22.3299 48.445 22.1691C48.5961 22.0039 48.7124 21.8099 48.787 21.5988C48.8616 21.3876 48.8929 21.1636 48.879 20.9401C48.8801 20.5315 48.7248 20.1379 48.445 19.8401C48.2865 19.6801 48.094 19.5577 47.8817 19.4823C47.6695 19.4068 47.443 19.3801 47.219 19.4041Z" fill="#444444"/>
<path d="M45.087 27.0031C44.7867 26.9934 44.4918 26.9204 44.2216 26.7889C43.9514 26.6574 43.712 26.4704 43.519 26.2401C43.2935 26.0504 43.118 25.8082 43.008 25.5348C42.898 25.2614 42.8568 24.9652 42.888 24.6721C42.8452 24.3476 42.8852 24.0176 43.0045 23.7128C43.1238 23.408 43.3183 23.1384 43.57 22.9291C43.7661 22.7283 44.0029 22.5718 44.2646 22.4704C44.5264 22.3689 44.8068 22.3249 45.087 22.3411C45.3982 22.3261 45.7092 22.3742 46.0014 22.4825C46.2935 22.5907 46.5607 22.7569 46.787 22.9711C47.0412 23.1725 47.2432 23.4321 47.376 23.728C47.5088 24.0239 47.5685 24.3473 47.55 24.6711C47.5655 24.9774 47.5032 25.2827 47.3689 25.5584C47.2346 25.8342 47.0327 26.0714 46.782 26.2481C46.5799 26.501 46.3199 26.7016 46.0241 26.8329C45.7282 26.9643 45.4051 27.0227 45.082 27.0031H45.087ZM45.087 23.0031C44.8829 22.9905 44.6785 23.023 44.4883 23.0983C44.2982 23.1737 44.127 23.2901 43.987 23.4391C43.677 23.6541 43.551 24.0391 43.551 24.6701C43.5324 24.8634 43.5573 25.0584 43.6239 25.2408C43.6906 25.4232 43.7972 25.5883 43.936 25.7241C44.486 26.2651 44.809 26.3351 45.084 26.3351C45.3128 26.3551 45.5429 26.3166 45.7528 26.2234C45.9626 26.1302 46.1454 25.9852 46.284 25.8021C46.3065 25.7718 46.3339 25.7455 46.365 25.7241C46.5388 25.6119 46.6788 25.4545 46.77 25.2689C46.8613 25.0832 46.9003 24.8763 46.883 24.6701C46.8995 24.4449 46.8609 24.2191 46.7707 24.0122C46.6805 23.8052 46.5412 23.6233 46.365 23.4821C46.1953 23.3198 45.9942 23.1938 45.7741 23.1118C45.5541 23.0298 45.3196 22.9935 45.085 23.0051L45.087 23.0031Z" fill="#444444"/>
<path d="M49.481 27.0021C49.1459 27.0432 48.8059 26.9901 48.4993 26.8488C48.1927 26.7075 47.9315 26.4836 47.745 26.2021C47.5444 26.0026 47.3879 25.7633 47.2854 25.4996C47.1829 25.2359 47.1368 24.9537 47.15 24.6711C47.1244 24.3588 47.1676 24.0447 47.2766 23.751C47.3857 23.4572 47.5578 23.191 47.781 22.9711C47.9901 22.7336 48.2549 22.5517 48.5516 22.4418C48.8483 22.3318 49.1676 22.2972 49.481 22.3411C49.7733 22.3128 50.0682 22.3544 50.3413 22.4624C50.6144 22.5703 50.858 22.7416 51.052 22.9621C51.2843 23.1751 51.4625 23.4404 51.5717 23.7361C51.6809 24.0318 51.718 24.3492 51.68 24.6621C51.7076 24.9562 51.6646 25.2527 51.5545 25.5268C51.4443 25.8009 51.2704 26.0448 51.047 26.2381C50.862 26.4763 50.6246 26.6685 50.3531 26.7998C50.0817 26.9311 49.7835 26.9979 49.482 26.9951L49.481 27.0021ZM49.481 23.0021C48.855 23.0021 48.465 23.1281 48.293 23.3871C48.1211 23.5499 47.9888 23.7499 47.9061 23.9718C47.8234 24.1936 47.7926 24.4315 47.816 24.6671C47.8032 24.8712 47.8356 25.0757 47.911 25.2658C47.9864 25.456 48.1028 25.6271 48.252 25.7671C48.2775 25.7923 48.2985 25.8217 48.314 25.8541C48.484 26.1961 48.824 26.3361 49.481 26.3361C49.6883 26.3394 49.8933 26.2927 50.0787 26.2C50.2641 26.1072 50.4244 25.971 50.546 25.8031C50.5692 25.7727 50.5972 25.7464 50.629 25.7251C50.7678 25.5893 50.8744 25.4242 50.9411 25.2418C51.0077 25.0594 51.0326 24.8644 51.014 24.6711C51.014 24.0451 50.887 23.6551 50.629 23.4831C50.5923 23.4591 50.561 23.4277 50.537 23.3911C50.4012 23.2523 50.2361 23.1456 50.0537 23.079C49.8713 23.0124 49.6763 22.9875 49.483 23.0061L49.481 23.0021Z" fill="#444444"/>
<path d="M8.40303 19.6671C8.09944 19.6851 7.7963 19.6251 7.52239 19.493C7.24849 19.3609 7.01291 19.1609 6.83803 18.9121C6.60941 18.723 6.43161 18.4798 6.32072 18.2046C6.20984 17.9294 6.16939 17.6309 6.20303 17.3361C6.17265 17.0323 6.21909 16.7258 6.33808 16.4446C6.45708 16.1635 6.6448 15.9167 6.88403 15.7271C7.08038 15.5261 7.3176 15.3695 7.57966 15.2681C7.84172 15.1667 8.1225 15.1227 8.40303 15.1391C8.69543 15.1118 8.99015 15.1543 9.26292 15.2631C9.53569 15.3719 9.77872 15.544 9.97203 15.7651C10.211 15.951 10.4039 16.1894 10.5361 16.4618C10.6682 16.7342 10.7359 17.0333 10.734 17.3361C10.7515 17.6376 10.6926 17.9387 10.5627 18.2114C10.4328 18.4841 10.2362 18.7196 9.99103 18.8961C9.82419 19.1595 9.5872 19.3712 9.30668 19.5074C9.02616 19.6436 8.71323 19.6989 8.40303 19.6671ZM8.40303 15.8051C8.19888 15.7923 7.99443 15.8247 7.80428 15.9001C7.61412 15.9755 7.44296 16.0919 7.30303 16.2411C7.15001 16.378 7.03109 16.5487 6.95574 16.7397C6.88039 16.9307 6.85069 17.1366 6.86903 17.3411C6.86903 18.0061 7.01503 18.2411 7.25203 18.3951C7.28384 18.4156 7.31135 18.4421 7.33303 18.4731C7.4449 18.6512 7.60361 18.7952 7.7918 18.8892C7.97998 18.9832 8.1904 19.0236 8.40003 19.0061C9.11203 19.0061 9.33003 18.7311 9.43303 18.5241C9.45945 18.4724 9.49827 18.4281 9.54603 18.3951C9.71957 18.2826 9.85939 18.1252 9.9506 17.9396C10.0418 17.754 10.081 17.5472 10.064 17.3411C10.0659 17.1374 10.0206 16.936 9.9316 16.7528C9.84259 16.5696 9.71232 16.4095 9.55103 16.2851C9.51471 16.2606 9.48346 16.2294 9.45903 16.1931C9.3233 16.0534 9.15795 15.9461 8.97517 15.8789C8.79239 15.8118 8.59687 15.7865 8.40303 15.8051Z" fill="#444444"/>
<path d="M40.85 19.6671C40.5398 19.6992 40.2268 19.644 39.9462 19.5078C39.6657 19.3716 39.4287 19.1597 39.262 18.8961C39.0186 18.7181 38.8232 18.4823 38.6935 18.21C38.5638 17.9376 38.5038 17.6373 38.519 17.3361C38.517 17.0335 38.5844 16.7345 38.7162 16.4621C38.848 16.1898 39.0405 15.9513 39.279 15.7651C39.4728 15.544 39.7162 15.372 39.9893 15.2632C40.2624 15.1544 40.5573 15.1119 40.85 15.1391C41.1412 15.1259 41.4319 15.1752 41.7024 15.2839C41.9729 15.3926 42.2169 15.5581 42.418 15.7691C42.6587 15.9528 42.853 16.1903 42.9855 16.4626C43.118 16.7349 43.185 17.0343 43.181 17.3371C43.1988 17.642 43.138 17.9463 43.0046 18.2209C42.8712 18.4956 42.6696 18.7315 42.419 18.9061C42.2444 19.1565 42.0084 19.3579 41.7337 19.4911C41.459 19.6243 41.1548 19.6849 40.85 19.6671ZM40.85 15.8051C40.6564 15.7862 40.461 15.8109 40.2783 15.8776C40.0955 15.9442 39.93 16.051 39.794 16.1901C39.77 16.2264 39.7391 16.2577 39.703 16.2821C39.5408 16.406 39.4096 16.5659 39.3197 16.7491C39.2298 16.9324 39.1837 17.134 39.185 17.3381C39.1677 17.5442 39.2068 17.7512 39.298 17.9369C39.3893 18.1225 39.5293 18.2799 39.703 18.3921C39.7509 18.4244 39.7892 18.469 39.814 18.5211C39.914 18.7281 40.138 19.0031 40.849 19.0031C41.0583 19.0209 41.2684 18.9805 41.4561 18.8865C41.6439 18.7924 41.802 18.6483 41.913 18.4701C41.9324 18.4447 41.9553 18.4221 41.981 18.4031C42.159 18.2915 42.303 18.1332 42.3972 17.9454C42.4913 17.7576 42.5321 17.5475 42.515 17.3381C42.515 16.9231 42.443 16.7381 41.946 16.2381C41.8062 16.0889 41.635 15.9726 41.4448 15.8975C41.2546 15.8225 41.0501 15.7905 40.846 15.8041L40.85 15.8051Z" fill="#444444"/>
<path d="M40.85 27.0031C40.5393 27.0349 40.2259 26.9794 39.945 26.8428C39.6642 26.7063 39.4269 26.4941 39.26 26.2301C39.0271 26.0431 38.8394 25.8058 38.7111 25.536C38.5828 25.2662 38.5171 24.9709 38.519 24.6721C38.5049 24.3494 38.566 24.0278 38.6976 23.7327C38.8291 23.4377 39.0275 23.1773 39.277 22.9721C39.4669 22.746 39.7099 22.5705 39.9842 22.4613C40.2586 22.352 40.5557 22.3125 40.849 22.3461C41.1402 22.3329 41.4309 22.3823 41.7014 22.4909C41.9719 22.5996 42.2159 22.7651 42.417 22.9761C42.6587 23.1882 42.8519 23.4498 42.9835 23.7431C43.1151 24.0364 43.1822 24.3546 43.18 24.6761C43.1676 24.9759 43.0934 25.2699 42.9621 25.5397C42.8308 25.8095 42.6453 26.0493 42.417 26.2441C42.2441 26.4957 42.0087 26.6979 41.734 26.831C41.4592 26.964 41.1546 27.0234 40.85 27.0031ZM40.85 23.0031C40.184 23.0031 39.95 23.1491 39.794 23.3881C39.77 23.4244 39.7391 23.4557 39.703 23.4801C39.5273 23.6217 39.3885 23.8037 39.2983 24.0106C39.2081 24.2174 39.1692 24.443 39.185 24.6681C39.1832 24.872 39.2291 25.0735 39.3191 25.2565C39.409 25.4395 39.5405 25.599 39.703 25.7221C39.7509 25.7545 39.7892 25.799 39.814 25.8511C39.914 26.0581 40.138 26.3331 40.849 26.3331C41.0583 26.3509 41.2683 26.3105 41.4561 26.2165C41.6438 26.1224 41.802 25.9783 41.913 25.8001C42.0971 25.6642 42.2472 25.4875 42.3516 25.2839C42.4561 25.0803 42.5121 24.8553 42.5152 24.6266C42.5183 24.3978 42.4684 24.1713 42.3695 23.965C42.2706 23.7587 42.1253 23.578 41.945 23.4371C41.8053 23.2876 41.6342 23.1709 41.444 23.0955C41.2538 23.0201 41.0492 22.9879 40.845 23.0011L40.85 23.0031Z" fill="#444444"/>
<path d="M12.534 19.6671C12.2229 19.6704 11.9156 19.5995 11.6373 19.4604C11.3591 19.3213 11.118 19.1179 10.934 18.8671C10.7126 18.676 10.5332 18.4411 10.4071 18.1773C10.2809 17.9135 10.2108 17.6264 10.201 17.3341C10.2255 16.8324 10.4337 16.3572 10.786 15.9991L10.934 15.8051C11.3584 15.3804 11.9336 15.141 12.534 15.1391C13.1874 15.1107 13.8283 15.3244 14.334 15.7391C14.7118 16.1835 14.9028 16.7569 14.867 17.3391C14.8952 17.6207 14.8653 17.9052 14.7793 18.1749C14.6934 18.4445 14.553 18.6937 14.367 18.9071C14.1389 19.1644 13.8554 19.3667 13.538 19.4988C13.2205 19.6309 12.8773 19.6895 12.534 19.6701V19.6671ZM12.534 15.8051C12.1251 15.8045 11.7315 15.9605 11.434 16.2411L11.312 16.4061C10.994 16.8191 10.867 17.0061 10.867 17.3381C10.8789 17.5511 10.9356 17.7592 11.0335 17.9488C11.1314 18.1383 11.2682 18.3051 11.435 18.4381C11.5583 18.6151 11.7229 18.7594 11.9146 18.8583C12.1063 18.9573 12.3193 19.008 12.535 19.0061C12.7906 19.026 13.0473 18.9849 13.284 18.8862C13.5206 18.7874 13.7304 18.6338 13.896 18.4381C14.036 18.2981 14.196 18.0451 14.196 17.3381C14.2244 16.9479 14.1185 16.5598 13.896 16.2381C13.5126 15.9282 13.027 15.7733 12.535 15.8041L12.534 15.8051Z" fill="#444444"/>
<path d="M14.754 23.2681C14.4627 23.2817 14.1718 23.2323 13.9012 23.1234C13.6307 23.0146 13.3867 22.8487 13.186 22.6371C12.9715 22.411 12.805 22.1438 12.6966 21.8516C12.5881 21.5595 12.54 21.2484 12.555 20.9371C12.5532 20.3522 12.7796 19.7897 13.186 19.3691C13.3866 19.1574 13.6306 18.9914 13.9012 18.8825C14.1718 18.7736 14.4626 18.7244 14.754 18.7381C15.0653 18.7226 15.3766 18.7705 15.6688 18.879C15.961 18.9874 16.2282 19.1542 16.454 19.3691C16.86 19.7899 17.086 20.3523 17.084 20.9371C17.0992 21.2483 17.0513 21.5594 16.943 21.8516C16.8347 22.1437 16.6684 22.4109 16.454 22.6371C16.2279 22.8515 15.9607 23.018 15.6685 23.1264C15.3764 23.2349 15.0653 23.2831 14.754 23.2681ZM14.754 19.4041C14.5498 19.3911 14.3453 19.4234 14.1551 19.4988C13.9649 19.5742 13.7938 19.6907 13.654 19.8401C13.3734 20.1376 13.2174 20.5312 13.218 20.9401C13.2043 21.1637 13.2358 21.3878 13.3108 21.599C13.3857 21.8102 13.5024 22.0041 13.654 22.1691C13.7937 22.3185 13.9648 22.4352 14.1551 22.5106C14.3453 22.586 14.5498 22.6182 14.754 22.6051C14.9776 22.6184 15.2016 22.5866 15.4127 22.5118C15.6238 22.4369 15.8178 22.3203 15.983 22.1691C16.1339 22.0032 16.2499 21.8086 16.3241 21.597C16.3983 21.3853 16.4292 21.1609 16.415 20.9371C16.4156 20.5282 16.2596 20.1346 15.979 19.8371C15.8139 19.6856 15.62 19.569 15.4088 19.4941C15.1977 19.4192 14.9736 19.3875 14.75 19.4011L14.754 19.4041Z" fill="#444444"/>
<path d="M10.537 23.2681C10.2323 23.3048 9.92331 23.2612 9.6407 23.1416C9.35808 23.0219 9.11169 22.8304 8.92599 22.5861C8.48008 22.1514 8.2217 21.5596 8.20599 20.9371C8.25824 20.3384 8.52957 19.7801 8.96799 19.3691C9.15347 19.1382 9.39521 18.9589 9.66997 18.8484C9.94474 18.7379 10.2433 18.6999 10.537 18.7381C10.8283 18.7247 11.1191 18.7742 11.3896 18.883C11.6602 18.9919 11.9041 19.1577 12.105 19.3691C12.1301 19.3939 12.1504 19.423 12.165 19.4551C12.4482 19.9078 12.641 20.4111 12.733 20.9371C12.6577 21.5087 12.4643 22.0583 12.165 22.5511C12.1493 22.5825 12.1291 22.6115 12.105 22.6371C11.9041 22.8485 11.6602 23.0143 11.3896 23.1232C11.1191 23.2321 10.8283 23.2815 10.537 23.2681ZM10.537 19.4041C9.87099 19.4041 9.63699 19.5501 9.48099 19.7891C9.15066 20.0893 8.9353 20.4953 8.87199 20.9371C8.89417 21.4051 9.09793 21.846 9.43999 22.1661C9.63999 22.4541 9.87099 22.6021 10.54 22.6021C10.7347 22.614 10.9298 22.5845 11.1123 22.5155C11.2949 22.4466 11.4607 22.3398 11.599 22.2021C11.8318 21.8122 11.9917 21.3832 12.071 20.9361C11.962 20.5404 11.8034 20.16 11.599 19.8041C11.4607 19.6665 11.2948 19.5597 11.1123 19.4908C10.9298 19.4219 10.7347 19.3923 10.54 19.4041H10.537Z" fill="#444444"/>
<path d="M6.274 23.2681C5.97009 23.299 5.66328 23.2527 5.38202 23.1335C5.10075 23.0143 4.85413 22.826 4.665 22.5861C4.45267 22.3707 4.28989 22.1115 4.18799 21.8267C4.08609 21.5419 4.04753 21.2383 4.075 20.9371C4.07251 20.3521 4.29898 19.7893 4.706 19.3691C4.90673 19.1575 5.15068 18.9916 5.42125 18.8827C5.69182 18.7739 5.98266 18.7245 6.274 18.7381C6.8823 18.7325 7.4724 18.9454 7.937 19.3381C8.36261 19.762 8.60281 20.3374 8.605 20.9381C8.62052 21.2494 8.57258 21.5607 8.46411 21.8529C8.35564 22.1451 8.18889 22.4123 7.974 22.6381C7.50264 23.0477 6.89845 23.2719 6.274 23.2691V23.2681ZM6.274 19.4041C6.06984 19.3911 5.86532 19.4234 5.67514 19.4988C5.48495 19.5742 5.31381 19.6907 5.174 19.8401C4.89283 20.1372 4.73672 20.5311 4.738 20.9401C4.71282 21.1646 4.73899 21.3919 4.81452 21.6048C4.89005 21.8177 5.01297 22.0107 5.174 22.1691C5.31044 22.3228 5.48105 22.4423 5.67211 22.518C5.86316 22.5938 6.06932 22.6236 6.274 22.6051C6.73872 22.6094 7.18897 22.4437 7.54 22.1391C7.8243 21.8063 7.96778 21.3759 7.94 20.9391C7.94057 20.5302 7.78456 20.1366 7.504 19.8391C7.15983 19.5512 6.72369 19.3964 6.275 19.4031L6.274 19.4041Z" fill="#444444"/>
<path d="M47.885 27.4421H37.629C37.4964 27.4421 37.3692 27.3894 37.2755 27.2956C37.1817 27.2019 37.129 27.0747 37.129 26.9421C37.129 26.8095 37.1817 26.6823 37.2755 26.5885C37.3692 26.4948 37.4964 26.4421 37.629 26.4421H47.885C48.6121 26.4695 49.3366 26.3421 50.0107 26.0683C50.6848 25.7946 51.293 25.3807 51.795 24.8541C52.3078 24.3409 52.7123 23.7299 52.9844 23.0573C53.2565 22.3848 53.3907 21.6645 53.379 20.9391C53.3268 19.4687 52.7517 18.0652 51.757 16.9811C50.6403 16.1431 49.2802 15.6932 47.884 15.7001H37.762C37.6294 15.7001 37.5022 15.6474 37.4085 15.5536C37.3147 15.4599 37.262 15.3327 37.262 15.2001C37.262 15.0675 37.3147 14.9403 37.4085 14.8465C37.5022 14.7528 37.6294 14.7001 37.762 14.7001H47.883C49.5399 14.6965 51.1498 15.251 52.453 16.2741C53.6395 17.5439 54.3233 19.2021 54.377 20.9391C54.3845 21.7956 54.2224 22.6452 53.9001 23.4388C53.5778 24.2324 53.1016 24.9543 52.499 25.5631C51.9041 26.1822 51.1859 26.6696 50.3907 26.9936C49.5956 27.3176 48.7412 27.4711 47.883 27.4441L47.885 27.4421Z" fill="#444444"/>
<path d="M28.877 29.0391C28.8114 29.0394 28.7464 29.0267 28.6858 29.0016C28.6252 28.9765 28.5702 28.9397 28.524 28.8931L20.932 21.2931C20.8385 21.1994 20.786 21.0725 20.786 20.9401C20.7858 20.8742 20.7985 20.809 20.8236 20.748C20.8486 20.6871 20.8855 20.6317 20.932 20.5851L28.524 12.9851C28.6211 12.8956 28.747 12.8438 28.879 12.8391C28.9452 12.8394 29.0106 12.8528 29.0715 12.8785C29.1325 12.9043 29.1877 12.9419 29.234 12.9891L36.693 20.5891C36.7846 20.6826 36.8359 20.8082 36.8359 20.9391C36.8359 21.07 36.7846 21.1956 36.693 21.2891L29.234 28.8891C29.1877 28.9364 29.1325 28.9739 29.0715 28.9997C29.0106 29.0254 28.9452 29.0388 28.879 29.0391H28.877ZM21.991 20.9391L28.874 27.8251L35.636 20.9331L28.874 14.0451L21.991 20.9371V20.9391Z" fill="#444444"/>
<path d="M20.126 27.4411H9.737C8.90628 27.482 8.0774 27.3295 7.31562 26.9957C6.55384 26.6618 5.87995 26.1557 5.347 25.5171C4.69877 24.9482 4.18557 24.2419 3.84478 23.4496C3.50398 22.6573 3.34418 21.799 3.377 20.9371C3.42078 19.2038 4.13481 17.5549 5.369 16.3371C6.56675 15.2623 8.12587 14.6788 9.735 14.7031H20.124C20.2566 14.7031 20.3838 14.7558 20.4776 14.8496C20.5713 14.9433 20.624 15.0705 20.624 15.2031C20.624 15.3357 20.5713 15.4629 20.4776 15.5567C20.3838 15.6504 20.2566 15.7031 20.124 15.7031H9.735C8.38814 15.6782 7.08059 16.1575 6.069 17.0471C5.02017 18.0754 4.41295 19.4717 4.376 20.9401C4.34619 21.6764 4.48367 22.4099 4.77812 23.0854C5.07257 23.7609 5.51631 24.3608 6.076 24.8401C6.52028 25.3736 7.0824 25.7967 7.71806 26.0759C8.35372 26.3551 9.04554 26.4829 9.739 26.4491H20.124C20.2566 26.4491 20.3838 26.5018 20.4776 26.5956C20.5713 26.6893 20.624 26.8165 20.624 26.9491C20.624 27.0817 20.5713 27.2089 20.4776 27.3027C20.3838 27.3964 20.2566 27.4491 20.124 27.4491L20.126 27.4411Z" fill="#444444"/>
<path d="M29.011 32.0031C27.5575 32.0184 26.1161 31.7371 24.775 31.1764C23.4338 30.6157 22.2211 29.7874 21.211 28.7421C20.6784 28.3465 20.2084 27.8728 19.817 27.3371C18.5666 25.4396 17.9174 23.2092 17.954 20.9371C17.8951 18.7444 18.5496 16.5919 19.819 14.8031C20.14 14.1485 20.6395 13.5979 21.26 13.2151C22.2483 12.1583 23.451 11.3249 24.7877 10.7709C26.1243 10.217 27.5639 9.95517 29.01 10.0031C30.4466 9.93861 31.8794 10.1965 33.2033 10.7578C34.5272 11.3192 35.7086 12.1697 36.661 13.2471C36.9726 13.5066 37.2513 13.8031 37.491 14.1301C37.6503 14.3404 37.8223 14.5408 38.006 14.7301C39.3594 16.5068 40.0418 18.7043 39.933 20.9351C39.99 23.2306 39.2869 25.4805 37.933 27.3351L37.806 27.5071C37.4769 28.0009 37.0719 28.4396 36.606 28.8071C35.64 29.8491 34.4629 30.6732 33.1532 31.2243C31.8436 31.7754 30.4314 32.0409 29.011 32.0031ZM29.011 11.3371C27.7316 11.285 26.4564 11.5136 25.2747 12.0068C24.0931 12.5 23.0337 13.2459 22.171 14.1921C22.1292 14.2375 22.0811 14.2766 22.028 14.3081C21.5595 14.591 21.1846 15.0056 20.95 15.5001C19.8191 17.0833 19.2353 18.9921 19.287 20.9371C19.2506 22.9334 19.815 24.8946 20.907 26.5661C21.2406 27.0114 21.6374 27.4056 22.085 27.7361C22.974 28.6773 24.0484 29.4239 25.2405 29.9287C26.4327 30.4336 27.7165 30.6857 29.011 30.6691C30.2679 30.6987 31.5165 30.4592 32.6732 29.9668C33.83 29.4744 34.8681 28.7404 35.718 27.8141C36.1134 27.5033 36.4573 27.1321 36.737 26.7141L36.869 26.5371C38.0478 24.9123 38.657 22.9437 38.602 20.9371C38.7076 19.0371 38.149 17.1595 37.022 15.6261C36.8178 15.4152 36.6261 15.1925 36.448 14.9591C36.2649 14.7019 36.0491 14.4696 35.806 14.2681C35.7704 14.2393 35.737 14.2078 35.706 14.1741C34.8759 13.2272 33.8427 12.4801 32.6834 11.9885C31.5241 11.4969 30.2687 11.2736 29.011 11.3351V11.3371Z" fill="#444444"/>
</svg>
