<svg width="52" height="42" viewBox="0 0 52 42" fill="none" xmlns="http://www.w3.org/2000/svg">
<path d="M7.81378 23.4482H3.65778C2.94927 23.4285 2.27142 23.1548 1.74778 22.6772C1.46576 22.5183 1.23437 22.2829 1.08027 21.9983C0.926172 21.7136 0.855632 21.3912 0.876778 21.0682C0.872913 20.7293 0.949916 20.3944 1.1014 20.0913C1.25288 19.7882 1.47447 19.5255 1.74778 19.3252C2.30546 18.9383 2.98205 18.7611 3.65778 18.8252H7.81378C7.94639 18.8252 8.07356 18.8778 8.16733 18.9716C8.2611 19.0654 8.31378 19.1926 8.31378 19.3252C8.31378 19.4578 8.2611 19.585 8.16733 19.6787C8.07356 19.7725 7.94639 19.8252 7.81378 19.8252H3.65778C3.20033 19.7673 2.73718 19.8736 2.35078 20.1252C2.20287 20.2322 2.08299 20.3734 2.00133 20.5367C1.91968 20.7 1.87867 20.8806 1.88178 21.0632C1.86816 21.2135 1.89772 21.3646 1.96698 21.4986C2.03624 21.6327 2.14233 21.7443 2.27278 21.8202C2.64318 22.1878 3.13485 22.4079 3.65578 22.4392H7.81178C7.94439 22.4392 8.07156 22.4918 8.16533 22.5856C8.2591 22.6794 8.31178 22.8066 8.31178 22.9392C8.31178 23.0718 8.2591 23.199 8.16533 23.2927C8.07156 23.3865 7.94439 23.4392 7.81178 23.4392L7.81378 23.4482Z" fill="#444444"/>
<path d="M26.3098 29.0192C26.2422 29.0226 26.1748 29.0109 26.1123 28.9849C26.0499 28.959 25.994 28.9194 25.9488 28.8692L18.4488 21.2842C18.3572 21.1907 18.3058 21.065 18.3058 20.9342C18.3058 20.8033 18.3572 20.6776 18.4488 20.5842L25.8198 13.1322C25.8651 13.0826 25.9208 13.0435 25.9828 13.0176C26.0448 12.9917 26.1116 12.9796 26.1788 12.9822C26.2447 12.9821 26.31 12.995 26.371 13.0202C26.4319 13.0454 26.4872 13.0825 26.5338 13.1292L34.1738 20.7142C34.2206 20.7602 34.2579 20.8152 34.2833 20.8758C34.3087 20.9364 34.3218 21.0015 34.3218 21.0672C34.3218 21.1329 34.3087 21.1979 34.2833 21.2586C34.2579 21.3192 34.2206 21.3741 34.1738 21.4202L26.6738 28.8712C26.5791 28.9643 26.4516 29.0164 26.3188 29.0162L26.3098 29.0192ZM19.5098 20.9352L26.3098 27.8112L33.1018 21.0682L26.1738 14.1922L19.5058 20.9352H19.5098Z" fill="#444444"/>
<path d="M44.8038 23.4482C44.6712 23.4482 44.544 23.3955 44.4502 23.3017C44.3565 23.208 44.3038 23.0808 44.3038 22.9482C44.3038 22.8156 44.3565 22.6884 44.4502 22.5946C44.544 22.5008 44.6712 22.4482 44.8038 22.4482H49.0938C49.5853 22.4271 50.0513 22.2235 50.4008 21.8772C50.5429 21.7972 50.6613 21.6811 50.744 21.5406C50.8268 21.4001 50.8708 21.2402 50.8718 21.0772C50.8736 20.8994 50.8342 20.7236 50.7566 20.5636C50.6791 20.4037 50.5655 20.2638 50.4248 20.1552C50.0411 19.878 49.5634 19.7637 49.0958 19.8372H44.8058C44.6732 19.8372 44.546 19.7845 44.4522 19.6907C44.3585 19.597 44.3058 19.4698 44.3058 19.3372C44.3058 19.2046 44.3585 19.0774 44.4522 18.9836C44.546 18.8898 44.6732 18.8372 44.8058 18.8372H49.0958C49.7725 18.7597 50.4538 18.9381 51.0058 19.3372C51.279 19.5376 51.5005 19.8003 51.6519 20.1034C51.8034 20.4065 51.8805 20.7413 51.8768 21.0802C51.878 21.4047 51.7965 21.7241 51.6401 22.0084C51.4837 22.2927 51.2575 22.5325 50.9828 22.7052C50.463 23.1707 49.7934 23.4343 49.0958 23.4482H44.8038Z" fill="#444444"/>
<path d="M44.8038 23.4482C44.7109 23.4482 44.6199 23.4223 44.5409 23.3735C44.4619 23.3247 44.3981 23.2548 44.3566 23.1718C44.315 23.0887 44.2975 22.9957 44.3058 22.9033C44.3141 22.8108 44.3481 22.7225 44.4038 22.6482C44.7313 22.1912 44.8851 21.6324 44.8378 21.0722C44.8719 20.8269 44.8551 20.5772 44.7883 20.3387C44.7216 20.1002 44.6063 19.8781 44.4498 19.6862C44.3554 19.5919 44.3023 19.464 44.3022 19.3305C44.3021 19.1971 44.355 19.0691 44.4493 18.9747C44.5436 18.8803 44.6715 18.8272 44.8049 18.8271C44.9384 18.827 45.0664 18.8799 45.1608 18.9742C45.4112 19.2595 45.601 19.5929 45.7186 19.9539C45.8362 20.3149 45.8791 20.696 45.8448 21.0742C45.8944 21.8522 45.6693 22.623 45.2088 23.2522C45.1622 23.3143 45.1018 23.3647 45.0324 23.3994C44.963 23.4341 44.8864 23.4522 44.8088 23.4522L44.8038 23.4482Z" fill="#444444"/>
<path d="M11.1648 25.3252C10.5807 25.3583 9.99725 25.25 9.464 25.0094C8.93074 24.7688 8.46344 24.403 8.10178 23.9432C8.01895 23.8566 7.95374 23.7547 7.90978 23.6432L7.50978 23.3432C7.40369 23.2636 7.33356 23.1452 7.3148 23.0139C7.29605 22.8826 7.33021 22.7493 7.40978 22.6432C7.48934 22.5371 7.60779 22.467 7.73907 22.4482C7.87034 22.4294 8.00369 22.4636 8.10978 22.5432L8.64578 22.9432C8.70788 22.9897 8.75828 23.0501 8.79299 23.1196C8.82771 23.189 8.84578 23.2655 8.84578 23.3432C9.1302 23.6726 9.48703 23.9317 9.88832 24.1001C10.2896 24.2686 10.7244 24.3419 11.1588 24.3142C11.5974 24.3455 12.0369 24.2678 12.4382 24.0881C12.8395 23.9084 13.1901 23.6322 13.4588 23.2842L13.7528 22.9842C14.2185 22.4459 14.4959 21.7704 14.5428 21.0602C14.5613 20.6812 14.5006 20.3026 14.3646 19.9484C14.2286 19.5942 14.0202 19.2723 13.7528 19.0032C13.6735 18.9225 13.6247 18.8168 13.6148 18.7042C13.583 18.6879 13.5532 18.6681 13.5258 18.6452C12.8639 18.097 12.027 17.8053 11.1678 17.8232C10.3053 17.784 9.46094 18.0783 8.80978 18.6452C8.80503 18.6476 8.80118 18.6514 8.79878 18.6562C8.74972 18.7906 8.67347 18.9135 8.57478 19.0172C8.55878 19.0332 8.54178 19.0472 8.52578 19.0622C8.44674 19.2538 8.34999 19.4376 8.23678 19.6112C8.20014 19.666 8.15306 19.7131 8.09823 19.7497C8.0434 19.7863 7.98189 19.8118 7.91721 19.8247C7.85254 19.8375 7.78596 19.8375 7.72129 19.8247C7.65661 19.8118 7.5951 19.7863 7.54028 19.7497C7.48545 19.713 7.43838 19.666 7.40175 19.6111C7.36511 19.5563 7.33964 19.4948 7.32678 19.4301C7.31392 19.3654 7.31392 19.2989 7.32679 19.2342C7.33966 19.1695 7.36514 19.108 7.40178 19.0532C7.47846 18.9351 7.54279 18.8094 7.59378 18.6782C7.65104 18.5188 7.74935 18.3774 7.87878 18.2682C7.90725 18.17 7.95486 18.0785 8.01888 17.9989C8.0829 17.9192 8.16206 17.8531 8.25178 17.8042C9.07294 17.1322 10.1103 16.7814 11.1708 16.8172C12.2252 16.805 13.2522 17.1532 14.0818 17.8042C14.2047 17.8643 14.3131 17.9505 14.3995 18.0567C14.4858 18.1628 14.548 18.2865 14.5818 18.4192C15.2442 19.1412 15.5955 20.095 15.5598 21.0742C15.507 22.0307 15.1384 22.9426 14.5118 23.6672L14.2048 23.9752C13.8444 24.4275 13.3806 24.7865 12.8524 25.022C12.3242 25.2575 11.7471 25.3625 11.1698 25.3282L11.1648 25.3252Z" fill="#444444"/>
<path d="M7.81378 23.4482C7.71335 23.4484 7.61519 23.4184 7.53207 23.362C7.44895 23.3056 7.38473 23.2255 7.34778 23.1322C7.07448 22.4774 6.92561 21.7775 6.90878 21.0682C6.91334 20.387 7.06873 19.7152 7.36378 19.1012C7.42345 18.9818 7.52809 18.8911 7.65468 18.8489C7.78127 18.8067 7.91943 18.8165 8.03878 18.8762C8.15813 18.9358 8.24888 19.0405 8.29107 19.1671C8.33327 19.2937 8.32345 19.4318 8.26378 19.5512C8.03901 20.0256 7.92026 20.5432 7.91578 21.0682C7.93398 21.6491 8.05801 22.2218 8.28178 22.7582C8.30665 22.8193 8.31919 22.8847 8.31866 22.9507C8.31814 23.0166 8.30457 23.0818 8.27873 23.1425C8.25288 23.2032 8.21529 23.2582 8.1681 23.3043C8.12091 23.3504 8.06506 23.3867 8.00378 23.4112C7.94383 23.4358 7.8786 23.4484 7.81378 23.4482Z" fill="#444444"/>
<path d="M41.4548 25.3242C40.8814 25.3286 40.3138 25.2099 39.7902 24.9761C39.2666 24.7424 38.7993 24.399 38.4198 23.9692C38.3664 23.9159 38.3257 23.8513 38.3008 23.7802C38.2537 23.726 38.2153 23.665 38.1868 23.5992C37.595 22.8568 37.2512 21.9474 37.2038 20.9992C37.1974 20.9547 37.1974 20.9096 37.2038 20.8652C37.3165 19.9908 37.6133 19.1503 38.0748 18.3992L38.3558 17.9762C38.3889 17.9253 38.4317 17.8815 38.4818 17.8472C39.3316 17.1842 40.377 16.8213 41.4548 16.8152C42.5146 16.7582 43.5567 17.1052 44.3708 17.7862C44.4853 17.8261 44.5902 17.8897 44.6784 17.973C44.7666 18.0562 44.8363 18.1571 44.8828 18.2692C44.9229 18.3194 44.9565 18.3745 44.9828 18.4332C45.0985 18.6718 45.1988 18.9176 45.2828 19.1692C45.325 19.2957 45.3151 19.4338 45.2555 19.553C45.1959 19.6723 45.0913 19.763 44.9648 19.8052C44.8383 19.8473 44.7002 19.8375 44.5809 19.7779C44.4616 19.7183 44.3709 19.6137 44.3288 19.4872C44.2662 19.299 44.1935 19.1144 44.1108 18.9342C44.0647 18.8717 44.0252 18.8047 43.9928 18.7342C43.912 18.7109 43.8386 18.6672 43.7798 18.6072C43.4642 18.3272 43.0959 18.1131 42.6965 17.9775C42.2971 17.8418 41.8746 17.7873 41.4538 17.8172C40.6159 17.8187 39.802 18.0972 39.1388 18.6092L38.9228 18.9332C38.5484 19.5431 38.3049 20.2241 38.2078 20.9332C38.2401 21.6848 38.5163 22.4055 38.9948 22.9862C39.0484 23.0396 39.0897 23.1041 39.1158 23.1752C39.1596 23.2265 39.196 23.2837 39.2238 23.3452C39.5049 23.6568 39.8496 23.9045 40.2347 24.0715C40.6197 24.2385 41.0361 24.3209 41.4558 24.3132C41.8886 24.3572 42.3255 24.2881 42.7237 24.1129C43.1219 23.9376 43.4679 23.6621 43.7278 23.3132C43.7751 23.2463 43.8383 23.1923 43.9118 23.1562C43.9898 23.1162 44.0578 23.0882 44.1168 23.0642L44.3858 22.6642C44.4598 22.5533 44.5748 22.4764 44.7055 22.4503C44.8362 22.4242 44.9719 22.4512 45.0828 22.5252C45.1936 22.5992 45.2706 22.7142 45.2966 22.8449C45.3227 22.9756 45.2958 23.1113 45.2218 23.2222L45.0108 23.5382C44.9694 23.6445 44.9045 23.7401 44.8208 23.8177C44.7371 23.8953 44.6369 23.9529 44.5278 23.9862L44.4608 24.0132C44.1015 24.4569 43.6405 24.8074 43.1168 25.035C42.5931 25.2625 42.0223 25.3603 41.4528 25.3202L41.4548 25.3242Z" fill="#444444"/>
<path d="M26.4438 32.0002C23.4701 31.9836 20.6173 30.8206 18.4798 28.7532C17.4557 27.7559 16.647 26.5592 16.1037 25.237C15.5603 23.9149 15.2939 22.4954 15.3208 21.0662C15.3017 19.6255 15.5684 18.1953 16.1054 16.8584C16.6425 15.5214 17.4393 14.3042 18.4498 13.2772C20.5914 11.1937 23.456 10.0194 26.4438 10.0002C27.903 9.992 29.349 10.2764 30.6964 10.8365C32.0438 11.3966 33.2654 12.221 34.2888 13.2612C35.3383 14.2691 36.1705 15.4809 36.7344 16.8223C37.2983 18.1637 37.5819 19.6062 37.5678 21.0612C37.5898 22.4983 37.3093 23.9239 36.7444 25.2455C36.1794 26.5671 35.3428 27.755 34.2888 28.7322C32.2089 30.8153 29.3875 31.9881 26.4438 31.9932V32.0002ZM26.4438 11.3352C23.808 11.34 21.2788 12.3758 19.3968 14.2212C18.5118 15.1253 17.8145 16.1955 17.3449 17.3703C16.8753 18.5451 16.6428 19.8012 16.6608 21.0662C16.629 22.3173 16.8572 23.5614 17.3308 24.7198C17.8045 25.8783 18.5135 26.9258 19.4128 27.7962C21.2932 29.6328 23.8163 30.6628 26.4448 30.6672C29.0401 30.6574 31.5259 29.6197 33.3578 27.7812C34.2794 26.9252 35.0111 25.8854 35.5055 24.7288C35.9998 23.5723 36.2459 22.3248 36.2278 21.0672C36.2474 19.7861 36.0011 18.515 35.5043 17.334C35.0076 16.153 34.2712 15.088 33.3418 14.2062C32.4421 13.2904 31.3679 12.5644 30.1827 12.0711C28.9976 11.5778 27.7255 11.3272 26.4418 11.3342L26.4438 11.3352Z" fill="#444444"/>
</svg>
