<svg width="52" height="42" viewBox="0 0 52 42" fill="none" xmlns="http://www.w3.org/2000/svg">
<path d="M45.2082 27.2686H35.0002C34.9307 27.2755 34.8605 27.2679 34.7941 27.246C34.7277 27.2242 34.6667 27.1887 34.6148 27.1418C34.563 27.095 34.5216 27.0378 34.4933 26.9739C34.4649 26.91 34.4503 26.8409 34.4503 26.7711C34.4503 26.7012 34.4649 26.6321 34.4933 26.5682C34.5216 26.5044 34.563 26.4471 34.6148 26.4003C34.6667 26.3534 34.7277 26.3179 34.7941 26.2961C34.8605 26.2742 34.9307 26.2666 35.0002 26.2736H45.2082C45.9073 26.2966 46.604 26.1807 47.258 25.9327C47.9119 25.6847 48.5102 25.3094 49.0182 24.8286C49.5345 24.3499 49.9437 23.7674 50.2189 23.1194C50.4942 22.4714 50.6292 21.7725 50.6152 21.0686C50.6233 19.5621 50.044 18.1118 49.0002 17.0256C47.9493 16.1238 46.5922 15.6602 45.2092 15.7306H34.8682C34.7356 15.7306 34.6084 15.6779 34.5147 15.5841C34.4209 15.4903 34.3682 15.3632 34.3682 15.2306C34.3682 15.0979 34.4209 14.9708 34.5147 14.877C34.6084 14.7832 34.7356 14.7306 34.8682 14.7306H45.2092C46.8567 14.6627 48.4675 15.2297 49.7092 16.3146C50.9394 17.5913 51.6259 19.2956 51.6242 21.0686C51.6362 21.9031 51.474 22.731 51.1479 23.4993C50.8217 24.2676 50.3389 24.9595 49.7302 25.5306C48.5119 26.6836 46.8871 27.308 45.2102 27.2676L45.2082 27.2686Z" fill="#444444"/>
<path d="M26.3252 29.1496C26.2592 29.1499 26.1937 29.1372 26.1326 29.1122C26.0715 29.0871 26.016 29.0502 25.9692 29.0036L18.3112 21.4216C18.265 21.3757 18.2283 21.3212 18.2032 21.2612C18.1782 21.2011 18.1652 21.1366 18.1652 21.0716C18.1652 20.9392 18.2177 20.8123 18.3112 20.7186L25.9682 13.1386C26.063 13.0448 26.1909 12.9921 26.3242 12.9921C26.4575 12.9921 26.5855 13.0448 26.6802 13.1386L34.3362 20.7186C34.383 20.7645 34.4202 20.8194 34.4456 20.8799C34.471 20.9404 34.4841 21.0054 34.4841 21.0711C34.4841 21.1367 34.471 21.2017 34.4456 21.2622C34.4202 21.3227 34.383 21.3776 34.3362 21.4236L26.6802 29.0026C26.5849 29.0967 26.4562 29.1492 26.3222 29.1486L26.3252 29.1496ZM19.3822 21.0706L26.3252 27.9456L33.2652 21.0706L26.3252 14.1966L19.3822 21.0706Z" fill="#444444"/>
<path d="M17.5152 27.2696H7.03921C6.22897 27.2905 5.42285 27.1474 4.6693 26.8489C3.91575 26.5504 3.23032 26.1027 2.65421 25.5326C2.02508 24.97 1.51983 24.2827 1.17053 23.5144C0.821231 22.746 0.635528 21.9135 0.625214 21.0696C0.668982 19.301 1.38821 17.6164 2.63521 16.3616C3.21954 15.8058 3.91118 15.3752 4.66777 15.0961C5.42435 14.817 6.22995 14.6954 7.03521 14.7386L17.5212 14.8706C17.5908 14.8646 17.6608 14.8733 17.7268 14.8961C17.7929 14.9189 17.8534 14.9553 17.9045 15.0029C17.9555 15.0505 17.9961 15.1083 18.0235 15.1725C18.0509 15.2367 18.0646 15.306 18.0636 15.3758C18.0626 15.4456 18.047 15.5145 18.0178 15.5779C17.9886 15.6413 17.9464 15.6979 17.894 15.7441C17.8416 15.7902 17.7801 15.8248 17.7135 15.8458C17.6469 15.8667 17.5766 15.8734 17.5072 15.8656L7.03421 15.7316C6.36542 15.6877 5.69475 15.7817 5.06378 16.0077C4.43282 16.2337 3.85502 16.587 3.36621 17.0456C2.29882 18.1182 1.67989 19.557 1.63521 21.0696C1.64857 21.7817 1.80928 22.4833 2.10719 23.1303C2.40511 23.7772 2.83379 24.3555 3.36621 24.8286C3.84805 25.3068 4.42266 25.6813 5.05468 25.9291C5.6867 26.177 6.36274 26.2928 7.04121 26.2696H17.5172C17.5867 26.2626 17.657 26.2702 17.7233 26.2921C17.7897 26.3139 17.8508 26.3494 17.9026 26.3963C17.9544 26.4431 17.9958 26.5004 18.0242 26.5642C18.0525 26.6281 18.0672 26.6972 18.0672 26.7671C18.0672 26.8369 18.0525 26.906 18.0242 26.9699C17.9958 27.0338 17.9544 27.091 17.9026 27.1378C17.8508 27.1847 17.7897 27.2202 17.7233 27.242C17.657 27.2639 17.5867 27.2715 17.5172 27.2646L17.5152 27.2696Z" fill="#444444"/>
<path d="M26.3252 32.0036C24.8634 32.0116 23.4148 31.7272 22.0646 31.167C20.7144 30.6067 19.4899 29.7821 18.4632 28.7416C17.9236 28.2979 17.4498 27.7797 17.0562 27.2026C15.7985 25.4076 15.1405 23.261 15.1762 21.0696C15.1406 18.8814 15.7968 16.7378 17.0512 14.9446C17.4238 14.2707 17.9282 13.6786 18.5342 13.2036C19.5288 12.1445 20.7388 11.3108 22.0828 10.7588C23.4267 10.2068 24.8733 9.94929 26.3252 10.0036C27.7964 9.95356 29.2611 10.2202 30.6202 10.7854C31.9794 11.3506 33.2013 12.2012 34.2032 13.2796C34.6605 13.7388 35.048 14.2628 35.3532 14.8346C36.781 16.5933 37.5339 18.804 37.4762 21.0686C37.5132 23.2824 36.8014 25.4439 35.4562 27.2026C35.0681 27.7436 34.6431 28.2571 34.1842 28.7396C33.1625 29.7867 31.9389 30.6158 30.5876 31.1765C29.2362 31.7371 27.7852 32.0178 26.3222 32.0016L26.3252 32.0036ZM26.3252 11.3376C25.0366 11.2842 23.7519 11.5121 22.5603 12.0055C21.3687 12.4989 20.2989 13.2459 19.4252 14.1946C18.9113 14.6018 18.4837 15.1073 18.1672 15.6816C17.062 17.259 16.4844 19.1457 16.5172 21.0716C16.4825 22.9779 17.0493 24.8467 18.1372 26.4126C18.4733 26.9084 18.8773 27.3548 19.3372 27.7386C20.2458 28.6697 21.332 29.4092 22.5314 29.9132C23.7308 30.4171 25.0192 30.6754 26.3202 30.6726C27.6078 30.6937 28.886 30.4498 30.0752 29.9559C31.2645 29.4619 32.3395 28.7286 33.2332 27.8016C33.6455 27.3605 34.0283 26.8928 34.3792 26.4016C35.5462 24.8713 36.1618 22.9916 36.1262 21.0676C36.182 19.0893 35.5215 17.1575 34.2662 15.6276C34.2325 15.5881 34.2037 15.5448 34.1802 15.4986C33.9314 15.0221 33.6118 14.5861 33.2322 14.2056C32.358 13.2531 31.2866 12.5027 30.0927 12.0066C28.8987 11.5106 27.611 11.2809 26.3192 11.3336L26.3252 11.3376Z" fill="#444444"/>
</svg>
